<svg width="167" height="115" viewBox="0 0 167 115" fill="none" xmlns="http://www.w3.org/2000/svg">
<g filter="url(#filter0_d_1_197)">
<rect opacity="0.3" x="4" y="3.99976" width="148" height="96.4242" rx="30.7022" fill="white"/>
<g filter="url(#filter1_d_1_197)">
<path d="M37.7741 44.1772C36.3843 44.1772 35.6894 43.1831 35.6894 41.1948C35.6894 39.1873 36.9248 37.3535 39.3956 35.6934C41.8857 34.014 44.7136 33.1744 47.8793 33.1744H48.8349C52.3287 33.1744 55.1856 34.1395 57.4055 36.0698C59.6253 38.0002 60.7353 40.5289 60.7353 43.656C60.7353 46.7638 59.857 49.4759 58.1004 51.7923C56.3631 54.1087 53.7282 56.7436 50.1957 59.697C46.6825 62.6311 44.9259 64.6193 44.9259 65.6617C44.9259 66.3952 46.1324 66.7619 48.5453 66.7619C50.9582 66.7619 53.0333 66.5882 54.7706 66.2408C56.5079 65.8933 57.8108 65.7196 58.6795 65.7196C59.5481 65.7196 60.2141 65.9802 60.6774 66.5014C61.1406 67.0032 61.3723 67.6306 61.3723 68.3834V69.1652C61.3723 70.806 60.5616 71.9063 58.9401 72.466C57.8784 72.8328 55.5234 73.0162 51.8751 73.0162H50.022L49.0954 72.9872H48.1689C41.2969 72.9872 37.446 72.8425 36.6159 72.5529C35.8052 72.2441 35.3998 71.5298 35.3998 70.4103V69.5995C35.3998 67.9201 36.587 65.6231 38.9613 62.7083C39.8106 61.6659 41.7216 59.7259 44.6943 56.8884C47.6863 54.0315 49.5973 52.0625 50.4274 50.9816C52.126 48.781 52.9754 46.7928 52.9754 45.0169C52.9754 43.241 52.5218 41.8222 51.6145 40.7605C50.7266 39.6795 49.4043 39.139 47.6477 39.139C45.9104 39.139 44.231 39.8243 42.6096 41.1948C40.2739 43.1831 38.6621 44.1772 37.7741 44.1772ZM70.4044 72.4371C68.9953 72.4371 68.0108 72.1861 67.451 71.6843C66.8912 71.1824 66.6114 70.3137 66.6114 69.0783C66.6114 68.7695 66.7079 68.1325 66.9009 67.1673C67.2677 65.3335 67.451 63.2005 67.451 60.7683V53.5296L67.48 50.5762V42.2372C67.48 39.612 67.4221 38.0195 67.3063 37.4597C67.2097 36.8999 67.0167 36.0891 66.7272 35.0275C66.4376 33.9465 66.2928 33.2998 66.2928 33.0875V32.2768C66.2928 31.8328 66.6307 31.3985 67.3063 30.9738C68.0012 30.5298 69.391 30.3078 71.4758 30.3078C72.9814 30.3078 73.9369 30.858 74.3423 31.9583C74.7477 33.0392 74.9503 36.1471 74.9503 41.2817C74.9503 46.4164 75.0082 49.5145 75.1241 50.5762C75.3171 52.2749 75.8093 53.1242 76.6008 53.1242C77.2764 53.1242 78.6083 51.966 80.5965 49.6496C81.0791 49.0899 81.6679 48.2984 82.3628 47.2754C83.0577 46.233 83.743 45.4705 84.4186 44.9879C85.0942 44.5053 86.1945 44.2641 87.7194 44.2641C90.364 44.2641 91.6862 44.7563 91.6862 45.7407C91.6862 46.7059 90.3446 48.5011 87.6615 51.1263C84.9784 53.7516 83.6368 55.6529 83.6368 56.8304C83.6368 57.2744 85.3162 59.7356 88.6749 64.2139C92.0337 68.6923 93.7131 71.1631 93.7131 71.6264C93.7131 72.3792 92.9892 72.7556 91.5414 72.7556H90.6438C87.8642 72.7556 85.9242 72.2055 84.8239 71.1052C84.38 70.6612 83.7333 69.5899 82.884 67.8912C82.0346 66.1925 81.0405 64.5807 79.9016 63.0557C78.7627 61.5115 77.7879 60.7393 76.9772 60.7393C76.7262 60.7393 76.3788 61.0675 75.9348 61.7238C75.5101 62.3608 75.2978 63.5094 75.2978 65.1694L75.6742 69.1941C75.6742 71.3561 73.9176 72.4371 70.4044 72.4371Z" fill="url(#paint0_linear_1_197)"/>
<path d="M123.014 54.4561V55.4696C123.014 56.7436 122.743 57.5061 122.203 57.757C121.662 58.0079 119.993 58.1334 117.194 58.1334C114.414 58.1334 112.966 58.2589 112.85 58.5098C112.812 58.587 112.793 60.1023 112.793 63.0557C112.793 66.0091 112.657 67.6885 112.387 68.0939C112.136 68.4799 111.277 68.673 109.81 68.673H109.289C108.073 68.673 107.378 68.2869 107.204 67.5148C107.127 67.1866 107.088 65.6231 107.088 62.8241C107.088 60.0058 107.031 58.5195 106.915 58.365C106.818 58.2106 105.37 58.1334 102.571 58.1334C99.7918 58.1334 98.2765 58.1045 98.0256 58.0465C97.2921 57.8728 96.9253 57.342 96.9253 56.454V55.4117C96.9253 54.0411 97.1569 53.2497 97.6202 53.0374C98.1028 52.8057 99.7629 52.6899 102.6 52.6899C105.438 52.6899 106.915 52.5644 107.031 52.3135C107.069 52.2363 107.088 50.7789 107.088 47.9413C107.088 45.1037 107.146 43.5209 107.262 43.1927C107.494 42.5364 108.266 42.2083 109.579 42.2083H110.621C111.644 42.2083 112.252 42.4496 112.445 42.9321C112.657 43.4147 112.764 45.0941 112.764 47.9703C112.764 50.8464 112.831 52.3521 112.966 52.4872C113.101 52.6223 114.578 52.6899 117.396 52.6899C120.215 52.6899 121.749 52.7189 122 52.7768C122.676 52.9312 123.014 53.491 123.014 54.4561Z" fill="url(#paint1_linear_1_197)"/>
</g>
</g>
<rect x="6.5" y="6.5" width="143" height="91.4242" rx="28.1988" stroke="url(#paint2_linear_1_197)" stroke-width="5"/>
<defs>
<filter id="filter0_d_1_197" x="0.113131" y="-0.634428" width="166.139" height="115.31" filterUnits="userSpaceOnUse" color-interpolation-filters="sRGB">
<feFlood flood-opacity="0" result="BackgroundImageFix"/>
<feColorMatrix in="SourceAlpha" type="matrix" values="0 0 0 0 0 0 0 0 0 0 0 0 0 0 0 0 0 0 127 0" result="hardAlpha"/>
<feOffset dx="5.18249" dy="5.18249"/>
<feGaussianBlur stdDeviation="4.53468"/>
<feComposite in2="hardAlpha" operator="out"/>
<feColorMatrix type="matrix" values="0 0 0 0 0 0 0 0 0 0 0 0 0 0 0 0 0 0 0.15 0"/>
<feBlend mode="normal" in2="BackgroundImageFix" result="effect1_dropShadow_1_197"/>
<feBlend mode="normal" in="SourceGraphic" in2="effect1_dropShadow_1_197" result="shape"/>
</filter>
<filter id="filter1_d_1_197" x="34.7021" y="29.6102" width="97.9788" height="53.0734" filterUnits="userSpaceOnUse" color-interpolation-filters="sRGB">
<feFlood flood-opacity="0" result="BackgroundImageFix"/>
<feColorMatrix in="SourceAlpha" type="matrix" values="0 0 0 0 0 0 0 0 0 0 0 0 0 0 0 0 0 0 127 0" result="hardAlpha"/>
<feOffset dx="4.48485" dy="4.48485"/>
<feGaussianBlur stdDeviation="2.59125"/>
<feComposite in2="hardAlpha" operator="out"/>
<feColorMatrix type="matrix" values="0 0 0 0 0 0 0 0 0 0 0 0 0 0 0 0 0 0 0.22 0"/>
<feBlend mode="normal" in2="BackgroundImageFix" result="effect1_dropShadow_1_197"/>
<feBlend mode="normal" in="SourceGraphic" in2="effect1_dropShadow_1_197" result="shape"/>
</filter>
<linearGradient id="paint0_linear_1_197" x1="78.4091" y1="24.9293" x2="78.4091" y2="78.9293" gradientUnits="userSpaceOnUse">
<stop stop-color="#ACACAC"/>
<stop offset="1" stop-color="#818181"/>
</linearGradient>
<linearGradient id="paint1_linear_1_197" x1="72.8208" y1="3.89443" x2="144.819" y2="47.7951" gradientUnits="userSpaceOnUse">
<stop stop-color="#1E6EA9"/>
<stop offset="0.520833" stop-color="#4BC270"/>
<stop offset="1" stop-color="#FFCB3C"/>
</linearGradient>
<linearGradient id="paint2_linear_1_197" x1="4" y1="6.53677" x2="63.9898" y2="41.2186" gradientUnits="userSpaceOnUse">
<stop stop-color="white"/>
<stop offset="0.0833333" stop-color="#646464"/>
<stop offset="1" stop-color="#292929"/>
</linearGradient>
</defs>
</svg>
