<svg width="205" height="205" viewBox="0 0 205 205" fill="none" xmlns="http://www.w3.org/2000/svg">
<g filter="url(#filter0_dddd_1_188)">
<g clip-path="url(#clip0_1_188)">
<rect x="39" y="39" width="125" height="125" rx="35.5072" fill="#626262"/>
<g filter="url(#filter1_d_1_188)">
<path d="M118.915 73.6361V66.6702M101.5 73.6361V66.6702M84.0851 73.6361V66.6702M84.0851 129.364V136.33M101.5 129.364V136.33M118.915 129.364V136.33M129.364 118.915H136.33M129.364 101.5H136.33M129.364 84.085H136.33M73.6363 118.915H66.6704M73.6363 101.5H66.6704M73.6363 84.085H66.6704M129.364 75.7259V127.274C129.364 128.428 128.428 129.364 127.274 129.364H75.726C74.5718 129.364 73.6362 128.428 73.6362 127.274V75.7259C73.6362 74.5717 74.5718 73.6361 75.726 73.6361H127.274C128.428 73.6361 129.364 74.5717 129.364 75.7259Z" stroke="url(#paint0_linear_1_188)" stroke-width="7.24638" stroke-linecap="round" stroke-linejoin="round"/>
</g>
<g filter="url(#filter2_d_1_188)">
<path d="M94.0118 102.858V103.028C94.0118 103.226 94.6581 103.325 95.9508 103.325H97.1538C98.3332 103.325 98.9229 103.236 98.9229 103.056V102.887C98.9229 102.047 98.2577 99.8956 96.9273 96.4328C96.7481 95.9611 96.6254 95.7252 96.5594 95.7252C96.5405 95.7252 96.4886 95.829 96.4037 96.0365C96.3282 96.2347 96.2338 96.4564 96.1206 96.7017C94.7147 99.7494 94.0118 101.802 94.0118 102.858ZM105.221 109.128V109.411C105.221 110.26 104.98 110.841 104.499 111.152C104.188 111.35 103.655 111.449 102.9 111.449H102.56C101.787 111.449 101.268 111.218 101.003 110.756C100.871 110.529 100.725 109.869 100.565 108.774C100.404 107.68 100.126 106.925 99.7297 106.51C99.3334 106.095 98.588 105.887 97.4935 105.887C95.0025 105.887 93.54 106.081 93.106 106.467C92.672 106.854 92.3606 107.642 92.1719 108.831C91.9832 110.01 91.8417 110.671 91.7473 110.812C91.502 111.19 91.0114 111.378 90.2754 111.378C89.5394 111.378 89.0299 111.18 88.7469 110.784C88.4732 110.388 88.3364 109.864 88.3364 109.213C88.3364 108.921 88.7327 107.982 89.5253 106.397C89.6008 106.255 90.3131 104.231 91.6624 100.325C93.0117 96.4092 93.8703 94.0693 94.2383 93.305C94.6157 92.5313 94.9789 92.0359 95.328 91.8189C95.6772 91.6019 96.1961 91.4934 96.8849 91.4934C97.5831 91.4934 98.0879 91.6632 98.3993 92.0029C98.7106 92.3332 99.1069 93.0172 99.5881 94.0551C100.079 95.093 100.749 96.7961 101.598 99.1644C102.456 101.533 103.084 103.325 103.48 104.543C103.877 105.75 104.108 106.434 104.174 106.595C104.872 108.199 105.221 109.043 105.221 109.128Z" fill="url(#paint1_linear_1_188)"/>
<path d="M108.535 111.081C108.092 110.827 107.87 110.482 107.87 110.048C107.87 109.605 108.04 109.105 108.379 108.548C108.729 107.982 108.946 107.387 109.03 106.765C109.115 106.132 109.158 104.297 109.158 101.259C109.158 98.2208 109.125 96.4659 109.059 95.9941C108.993 95.5129 108.771 94.9845 108.394 94.4089C108.016 93.8334 107.827 93.3003 107.827 92.8096C107.827 92.3096 108.087 91.9699 108.606 91.7906C109.125 91.6019 109.96 91.5076 111.111 91.5076H111.677C112.47 91.5076 113.05 91.6397 113.418 91.9038C113.795 92.168 113.984 92.5832 113.984 93.1493C113.984 93.3852 113.828 93.8287 113.517 94.4797C113.206 95.1213 113.026 95.6733 112.979 96.1356C112.932 96.5885 112.908 98.419 112.908 101.627C112.908 104.826 112.946 106.708 113.022 107.274C113.107 107.84 113.295 108.383 113.588 108.902C113.89 109.411 114.041 109.907 114.041 110.388C114.041 111.124 113.3 111.492 111.819 111.492H111.253C110.875 111.473 110.436 111.463 109.936 111.463C109.446 111.463 108.979 111.336 108.535 111.081Z" fill="url(#paint2_linear_1_188)"/>
</g>
<rect x="41.5" y="41.5" width="120" height="120" rx="22.8623" stroke="url(#paint3_linear_1_188)" stroke-width="5"/>
</g>
<rect x="41.5" y="41.5" width="120" height="120" rx="33.0072" stroke="url(#paint4_linear_1_188)" stroke-width="5"/>
</g>
<defs>
<filter id="filter0_dddd_1_188" x="0.95652" y="0.95652" width="203.623" height="203.623" filterUnits="userSpaceOnUse" color-interpolation-filters="sRGB">
<feFlood flood-opacity="0" result="BackgroundImageFix"/>
<feColorMatrix in="SourceAlpha" type="matrix" values="0 0 0 0 0 0 0 0 0 0 0 0 0 0 0 0 0 0 127 0" result="hardAlpha"/>
<feOffset dx="-7.6087" dy="-7.6087"/>
<feGaussianBlur stdDeviation="15.2174"/>
<feColorMatrix type="matrix" values="0 0 0 0 0.113725 0 0 0 0 0.431373 0 0 0 0 0.658824 0 0 0 0.38 0"/>
<feBlend mode="normal" in2="BackgroundImageFix" result="effect1_dropShadow_1_188"/>
<feColorMatrix in="SourceAlpha" type="matrix" values="0 0 0 0 0 0 0 0 0 0 0 0 0 0 0 0 0 0 127 0" result="hardAlpha"/>
<feOffset dx="2.53623" dy="10.1449"/>
<feGaussianBlur stdDeviation="15.2174"/>
<feComposite in2="hardAlpha" operator="out"/>
<feColorMatrix type="matrix" values="0 0 0 0 0.294118 0 0 0 0 0.760784 0 0 0 0 0.439216 0 0 0 0.16 0"/>
<feBlend mode="normal" in2="effect1_dropShadow_1_188" result="effect2_dropShadow_1_188"/>
<feColorMatrix in="SourceAlpha" type="matrix" values="0 0 0 0 0 0 0 0 0 0 0 0 0 0 0 0 0 0 127 0" result="hardAlpha"/>
<feOffset dx="20.2899" dy="10.1449"/>
<feGaussianBlur stdDeviation="10.1449"/>
<feComposite in2="hardAlpha" operator="out"/>
<feColorMatrix type="matrix" values="0 0 0 0 0.866667 0 0 0 0 0.788235 0 0 0 0 0.270588 0 0 0 0.1 0"/>
<feBlend mode="normal" in2="effect2_dropShadow_1_188" result="effect3_dropShadow_1_188"/>
<feColorMatrix in="SourceAlpha" type="matrix" values="0 0 0 0 0 0 0 0 0 0 0 0 0 0 0 0 0 0 127 0" result="hardAlpha"/>
<feOffset dy="10.1449"/>
<feGaussianBlur stdDeviation="5.07246"/>
<feComposite in2="hardAlpha" operator="out"/>
<feColorMatrix type="matrix" values="0 0 0 0 0 0 0 0 0 0 0 0 0 0 0 0 0 0 0.25 0"/>
<feBlend mode="normal" in2="effect3_dropShadow_1_188" result="effect4_dropShadow_1_188"/>
<feBlend mode="normal" in="SourceGraphic" in2="effect4_dropShadow_1_188" result="shape"/>
</filter>
<filter id="filter1_d_1_188" x="63.0472" y="63.047" width="87.7753" height="87.7753" filterUnits="userSpaceOnUse" color-interpolation-filters="sRGB">
<feFlood flood-opacity="0" result="BackgroundImageFix"/>
<feColorMatrix in="SourceAlpha" type="matrix" values="0 0 0 0 0 0 0 0 0 0 0 0 0 0 0 0 0 0 127 0" result="hardAlpha"/>
<feOffset dx="5.43478" dy="5.43478"/>
<feGaussianBlur stdDeviation="2.71739"/>
<feColorMatrix type="matrix" values="0 0 0 0 0 0 0 0 0 0 0 0 0 0 0 0 0 0 0.17 0"/>
<feBlend mode="normal" in2="BackgroundImageFix" result="effect1_dropShadow_1_188"/>
<feBlend mode="normal" in="SourceGraphic" in2="effect1_dropShadow_1_188" result="shape"/>
</filter>
<filter id="filter2_d_1_188" x="79.2785" y="82.4354" width="54.6897" height="48.9838" filterUnits="userSpaceOnUse" color-interpolation-filters="sRGB">
<feFlood flood-opacity="0" result="BackgroundImageFix"/>
<feColorMatrix in="SourceAlpha" type="matrix" values="0 0 0 0 0 0 0 0 0 0 0 0 0 0 0 0 0 0 127 0" result="hardAlpha"/>
<feOffset dx="5.43478" dy="5.43478"/>
<feGaussianBlur stdDeviation="7.24638"/>
<feColorMatrix type="matrix" values="0 0 0 0 0 0 0 0 0 0 0 0 0 0 0 0 0 0 0.17 0"/>
<feBlend mode="normal" in2="BackgroundImageFix" result="effect1_dropShadow_1_188"/>
<feBlend mode="normal" in="SourceGraphic" in2="effect1_dropShadow_1_188" result="shape"/>
</filter>
<linearGradient id="paint0_linear_1_188" x1="101.5" y1="66.6702" x2="101.5" y2="136.33" gradientUnits="userSpaceOnUse">
<stop stop-color="#ACACAC"/>
<stop offset="1" stop-color="#818181"/>
</linearGradient>
<linearGradient id="paint1_linear_1_188" x1="79" y1="96.8572" x2="104.079" y2="90.5687" gradientUnits="userSpaceOnUse">
<stop stop-color="#1E6EA9"/>
<stop offset="0.520833" stop-color="#4BC270"/>
<stop offset="1" stop-color="#FFCB3C"/>
</linearGradient>
<linearGradient id="paint2_linear_1_188" x1="79" y1="96.8572" x2="104.079" y2="90.5687" gradientUnits="userSpaceOnUse">
<stop stop-color="#1E6EA9"/>
<stop offset="0.520833" stop-color="#4BC270"/>
<stop offset="1" stop-color="#FFCB3C"/>
</linearGradient>
<linearGradient id="paint3_linear_1_188" x1="49" y1="39" x2="158" y2="164" gradientUnits="userSpaceOnUse">
<stop stop-color="#ACACAC"/>
<stop offset="0.544643" stop-color="#818181"/>
<stop offset="1" stop-color="#818181" stop-opacity="0"/>
</linearGradient>
<linearGradient id="paint4_linear_1_188" x1="94.1471" y1="-9.69187" x2="210.166" y2="30.5194" gradientUnits="userSpaceOnUse">
<stop stop-color="#1E6EA9"/>
<stop offset="0.520833" stop-color="#4BC270"/>
<stop offset="1" stop-color="#FFCB3C"/>
</linearGradient>
<clipPath id="clip0_1_188">
<rect x="39" y="39" width="125" height="125" rx="35.5072" fill="white"/>
</clipPath>
</defs>
</svg>
