<svg width="91" height="92" viewBox="0 0 91 92" fill="none" xmlns="http://www.w3.org/2000/svg">
<g id="Group 1000004541">
<path id="Vector" opacity="0.3" d="M80 55.8577C80 58.0678 79.122 60.1874 77.5592 61.7502C75.9964 63.313 73.8768 64.191 71.6667 64.191H22.9093C22.1137 64.191 21.3506 64.5071 20.788 65.0697L10.1213 75.7364C8.23142 77.6262 5 76.2877 5 73.615V14.191C5 11.9809 5.87797 9.86125 7.44078 8.29844C9.00358 6.73564 11.1232 5.85767 13.3333 5.85767H71.6667C73.8768 5.85767 75.9964 6.73564 77.5592 8.29844C79.122 9.86125 80 11.9809 80 14.191V55.8577Z" fill="white"/>
<g id="Vector_2" filter="url(#filter0_d_1_303)">
<path d="M33.764 35.4451C33.764 37.7338 31.855 39.5891 29.5 39.5891C27.1451 39.5891 25.2361 37.7338 25.2361 35.4451C25.2361 33.1564 27.1451 31.301 29.5 31.301C31.855 31.301 33.764 33.1564 33.764 35.4451Z" fill="url(#paint0_linear_1_303)"/>
<path d="M46.764 35.4451C46.764 37.7338 44.855 39.5891 42.5 39.5891C40.1451 39.5891 38.2361 37.7338 38.2361 35.4451C38.2361 33.1564 40.1451 31.301 42.5 31.301C44.855 31.301 46.764 33.1564 46.764 35.4451Z" fill="url(#paint1_linear_1_303)"/>
<path d="M59.764 35.4451C59.764 37.7338 57.855 39.5891 55.5 39.5891C53.1451 39.5891 51.2361 37.7338 51.2361 35.4451C51.2361 33.1564 53.1451 31.301 55.5 31.301C57.855 31.301 59.764 33.1564 59.764 35.4451Z" fill="url(#paint2_linear_1_303)"/>
</g>
<g id="Vector_3" filter="url(#filter1_d_1_303)">
<path d="M21.6667 61.691H20.6311L19.8989 62.4232L7.5 74.8221V14.191C7.5 12.6439 8.11458 11.1602 9.20854 10.0662C10.3025 8.97225 11.7862 8.35767 13.3333 8.35767H71.6667C73.2138 8.35767 74.6975 8.97225 75.7915 10.0662C76.8854 11.1602 77.5 12.6439 77.5 14.191V55.8577C77.5 57.4048 76.8854 58.8885 75.7915 59.9824C74.6975 61.0764 73.2138 61.691 71.6667 61.691H21.6667Z" stroke="url(#paint3_linear_1_303)" stroke-width="5"/>
</g>
</g>
<defs>
<filter id="filter0_d_1_303" x="20.2361" y="26.301" width="50.5279" height="24.2881" filterUnits="userSpaceOnUse" color-interpolation-filters="sRGB">
<feFlood flood-opacity="0" result="BackgroundImageFix"/>
<feColorMatrix in="SourceAlpha" type="matrix" values="0 0 0 0 0 0 0 0 0 0 0 0 0 0 0 0 0 0 127 0" result="hardAlpha"/>
<feOffset dx="3" dy="3"/>
<feGaussianBlur stdDeviation="4"/>
<feColorMatrix type="matrix" values="0 0 0 0 0 0 0 0 0 0 0 0 0 0 0 0 0 0 0.17 0"/>
<feBlend mode="normal" in2="BackgroundImageFix" result="effect1_dropShadow_1_303"/>
<feBlend mode="normal" in="SourceGraphic" in2="effect1_dropShadow_1_303" result="shape"/>
</filter>
<filter id="filter1_d_1_303" x="0" y="0.857666" width="91" height="91" filterUnits="userSpaceOnUse" color-interpolation-filters="sRGB">
<feFlood flood-opacity="0" result="BackgroundImageFix"/>
<feColorMatrix in="SourceAlpha" type="matrix" values="0 0 0 0 0 0 0 0 0 0 0 0 0 0 0 0 0 0 127 0" result="hardAlpha"/>
<feOffset dx="3" dy="3"/>
<feGaussianBlur stdDeviation="4"/>
<feColorMatrix type="matrix" values="0 0 0 0 0 0 0 0 0 0 0 0 0 0 0 0 0 0 0.17 0"/>
<feBlend mode="normal" in2="BackgroundImageFix" result="effect1_dropShadow_1_303"/>
<feBlend mode="normal" in="SourceGraphic" in2="effect1_dropShadow_1_303" result="shape"/>
</filter>
<linearGradient id="paint0_linear_1_303" x1="25.2361" y1="23.6038" x2="58.0652" y2="48.3095" gradientUnits="userSpaceOnUse">
<stop stop-color="#1E6EA9"/>
<stop offset="0.520833" stop-color="#4BC270"/>
<stop offset="1" stop-color="#FFCB3C"/>
</linearGradient>
<linearGradient id="paint1_linear_1_303" x1="25.2361" y1="23.6038" x2="58.0652" y2="48.3095" gradientUnits="userSpaceOnUse">
<stop stop-color="#1E6EA9"/>
<stop offset="0.520833" stop-color="#4BC270"/>
<stop offset="1" stop-color="#FFCB3C"/>
</linearGradient>
<linearGradient id="paint2_linear_1_303" x1="25.2361" y1="23.6038" x2="58.0652" y2="48.3095" gradientUnits="userSpaceOnUse">
<stop stop-color="#1E6EA9"/>
<stop offset="0.520833" stop-color="#4BC270"/>
<stop offset="1" stop-color="#FFCB3C"/>
</linearGradient>
<linearGradient id="paint3_linear_1_303" x1="7.01346" y1="5.85767" x2="38.2537" y2="67.2906" gradientUnits="userSpaceOnUse">
<stop stop-color="white" stop-opacity="0.12"/>
<stop offset="1" stop-color="white" stop-opacity="0"/>
</linearGradient>
</defs>
</svg>
