<svg width="234" height="92" viewBox="0 0 234 92" fill="none" xmlns="http://www.w3.org/2000/svg">
<rect opacity="0.3" x="8.40521" y="6.26465" width="202.516" height="73.924" rx="23.6969" fill="white"/>
<g filter="url(#filter0_d_1_389)">
<path d="M218.305 35.6201C219.06 35.6201 219.672 36.2324 219.672 36.9876V48.9146C219.672 49.6699 219.06 50.2821 218.305 50.2821C217.55 50.2821 216.937 49.6699 216.937 48.9146V36.9876C216.937 36.2324 217.55 35.6201 218.305 35.6201ZM10.9053 29.6861C10.9053 17.9794 20.3954 8.48926 32.1022 8.48926H187.224C198.931 8.48926 208.421 17.9794 208.421 29.6861V56.2164C208.421 67.9231 198.931 77.4132 187.224 77.4132H32.1022C20.3955 77.4132 10.9053 67.9231 10.9053 56.2164V29.6861Z" stroke="url(#paint0_linear_1_389)" stroke-width="5"/>
</g>
<g filter="url(#filter1_d_1_389)">
<path d="M5.59363 29.9615C5.59363 16.8741 16.2031 6.26465 29.2905 6.26465H84.3497V80.1886H29.2905C16.2031 80.1886 5.59363 69.5792 5.59363 56.4917V29.9615Z" fill="url(#paint1_linear_1_389)"/>
</g>
<path d="M57.4409 28.5516C62.715 28.5516 65.3521 30.7715 65.3521 35.2114C65.3521 37.029 64.6295 38.869 63.1843 40.7314C62.3947 41.7445 61.9999 42.2809 61.9999 42.3404C61.9999 42.5341 62.5064 42.9662 63.5196 43.6366C65.9481 45.2457 67.1623 47.5997 67.1623 50.6987C67.1623 53.3209 66.097 55.511 63.9665 57.269C62.9087 58.1481 61.6721 58.826 60.2567 59.3027C58.8562 59.7795 57.4781 60.0179 56.1223 60.0179H55.4072C53.1426 60.0179 51.2057 59.5411 49.5966 58.5876C48.0025 57.6192 47.2054 56.5539 47.2054 55.3918C47.2054 54.7958 47.3693 54.3116 47.697 53.9392C48.0248 53.5667 48.5463 53.3805 49.2614 53.3805C49.9915 53.3805 51.0865 53.738 52.5466 54.4532C54.0067 55.1683 55.3774 55.5259 56.6587 55.5259C57.94 55.5259 59.0276 55.1013 59.9215 54.252C60.8303 53.3879 61.2847 52.2556 61.2847 50.8551C61.2847 49.4546 60.808 48.2553 59.8545 47.257C58.9009 46.2588 57.5377 45.648 55.7647 45.4245C54.7516 45.2755 54.1333 45.134 53.9098 44.9999C53.299 44.6423 52.9936 44.0687 52.9936 43.2791C52.9936 42.4745 53.664 41.819 55.0049 41.3124C56.3607 40.791 57.4111 40.1429 58.156 39.3681C59.2585 38.2358 59.8098 36.962 59.8098 35.5466C59.8098 34.8464 59.4745 34.2653 58.8041 33.8034C58.1336 33.3416 57.3887 33.1107 56.5693 33.1107C55.7498 33.1107 54.6101 33.4012 53.15 33.9822C51.6899 34.5633 50.6098 34.8538 49.9095 34.8538C48.6729 34.8538 48.0546 34.3249 48.0546 33.2671C48.0546 32.1199 48.7698 31.1217 50.2 30.2724C52.122 29.1252 54.2898 28.5516 56.7034 28.5516H57.4409ZM71.6976 56.3304C71.6976 54.4383 72.6065 53.4922 74.4241 53.4922H75.318C75.5564 53.522 75.7352 53.5369 75.8544 53.5369C76.7185 53.5369 77.2996 53.7231 77.5976 54.0956C77.8955 54.4681 78.0445 55.0715 78.0445 55.9058V56.9338C78.0445 58.7962 77.4337 60.7181 76.212 62.6996C74.9903 64.6812 73.8654 65.672 72.8374 65.672H72.5245C71.7051 65.672 71.2954 65.3367 71.2954 64.6663V64.4428C71.2954 64.4279 71.5561 63.9288 72.0776 62.9455C72.6139 61.9622 72.8821 61.1278 72.8821 60.4425C72.8821 60.2488 72.681 59.7571 72.2787 58.9675C71.8913 58.1779 71.6976 57.2988 71.6976 56.3304ZM84.3677 36.9992C83.295 36.9992 82.7586 36.2319 82.7586 34.6974C82.7586 33.1479 83.7122 31.7325 85.6192 30.4512C87.5411 29.155 89.7238 28.5069 92.1672 28.5069H92.9047C95.6014 28.5069 97.8064 29.2519 99.5198 30.7417C101.233 32.2316 102.09 34.1834 102.09 36.597C102.09 38.9957 101.412 41.089 100.056 42.8768C98.7152 44.6647 96.6816 46.6983 93.9551 48.9779C91.2435 51.2425 89.8877 52.7771 89.8877 53.5816C89.8877 54.1477 90.8189 54.4308 92.6812 54.4308C94.5436 54.4308 96.1452 54.2967 97.4861 54.0285C98.827 53.7604 99.8326 53.6263 100.503 53.6263C101.174 53.6263 101.688 53.8274 102.045 54.2297C102.403 54.6171 102.581 55.1013 102.581 55.6823V56.2857C102.581 57.5521 101.956 58.4013 100.704 58.8334C99.8848 59.1165 98.0671 59.258 95.2513 59.258H93.821L93.1058 59.2357H92.3907C87.0867 59.2357 84.1144 59.1239 83.4738 58.9005C82.848 58.6621 82.5352 58.1108 82.5352 57.2467V56.6209C82.5352 55.3247 83.4514 53.5518 85.284 51.3021C85.9395 50.4975 87.4145 49.0002 89.7089 46.8101C92.0182 44.6051 93.4932 43.0854 94.1339 42.2511C95.445 40.5526 96.1005 39.018 96.1005 37.6473C96.1005 36.2766 95.7504 35.1816 95.0501 34.3621C94.3648 33.5278 93.3442 33.1107 91.9884 33.1107C90.6475 33.1107 89.3513 33.6396 88.0998 34.6974C86.2971 36.2319 85.053 36.9992 84.3677 36.9992ZM112.95 59.9285H112.413C110.909 59.9285 110.156 59.4368 110.156 58.4535C110.156 57.3063 111.579 53.2911 114.425 46.4078C115.125 44.7243 116.093 42.5565 117.33 39.9045C118.567 37.2525 119.185 35.6285 119.185 35.0326C119.185 34.4217 118.894 34.012 118.313 33.8034C117.732 33.5949 116.63 33.4906 115.006 33.4906C113.382 33.4906 111.914 33.6992 110.603 34.1163C109.292 34.5186 108.339 34.7197 107.743 34.7197C106.521 34.7197 105.91 33.9599 105.91 32.4402C105.91 30.9205 106.409 29.8851 107.407 29.3338C108.093 28.9613 109.56 28.7751 111.81 28.7751H116.235C121.047 28.7751 123.833 28.9166 124.593 29.1997C125.353 29.4679 125.733 30.1309 125.733 31.1887C125.733 32.2465 124.66 35.1369 122.515 39.8598C120.369 44.5678 118.716 48.8065 117.553 52.5759C116.406 56.3304 115.803 58.2747 115.743 58.4088C115.266 59.4219 114.335 59.9285 112.95 59.9285ZM139.297 56.1516H139.878C141.472 56.1516 142.738 55.213 143.677 53.3358C144.616 51.4585 145.085 48.7395 145.085 45.1787V43.8378C145.085 38.5934 144.117 35.1667 142.18 33.5576C141.465 32.9617 140.727 32.6637 139.967 32.6637H139.386C137.747 32.6637 136.459 33.6098 135.52 35.5019C134.581 37.3792 134.112 39.979 134.112 43.3014V45.2904C134.112 48.5532 134.604 51.2127 135.587 53.2687C136.079 54.2818 136.667 55.0193 137.353 55.4812C138.053 55.9281 138.701 56.1516 139.297 56.1516ZM139.319 28.7528H140.258C141.897 28.7528 143.424 29.1252 144.839 29.8702C147.655 31.36 149.51 33.9748 150.404 37.7144C150.866 39.6661 151.097 41.6179 151.097 43.5696V44.5306C151.097 46.7654 150.821 48.8959 150.27 50.9222C149.733 52.9335 149.003 54.5798 148.08 55.8611C147.171 57.1424 145.949 58.1779 144.415 58.9675C142.895 59.7571 141.278 60.152 139.565 60.152H138.649C137.323 60.152 136.019 59.8242 134.738 59.1686C132.19 57.8575 130.38 55.3545 129.307 51.6596C128.696 49.544 128.391 47.4731 128.391 45.4468V43.5249C128.391 41.3646 128.674 39.316 129.24 37.3792C130.328 33.6545 132.279 31.1142 135.095 29.7584C136.526 29.088 137.934 28.7528 139.319 28.7528Z" fill="white"/>
<path fill-rule="evenodd" clip-rule="evenodd" d="M174.829 35.1754C175.027 35.4466 175.065 35.745 174.944 36.0705L166.041 59.6087C165.898 59.9478 165.667 60.1173 165.349 60.1173C165.305 60.1173 165.228 60.1038 165.118 60.0766C164.931 60.0088 164.791 59.88 164.697 59.6901C164.604 59.5002 164.579 59.2968 164.623 59.0798L167.871 42.6417L161.177 44.6964C161.133 44.71 161.067 44.7168 160.979 44.7168C160.782 44.7168 160.611 44.6422 160.468 44.493C160.27 44.2896 160.199 44.0251 160.254 43.6996L163.568 26.9156C163.612 26.7258 163.7 26.5698 163.832 26.4477C163.964 26.3256 164.118 26.2646 164.293 26.2646H169.701C169.91 26.2646 170.086 26.3494 170.229 26.5189C170.372 26.6885 170.443 26.8885 170.443 27.1191C170.443 27.2276 170.416 27.3496 170.361 27.4853L167.542 36.9046L174.071 34.9109C174.159 34.8838 174.225 34.8702 174.268 34.8702C174.477 34.8702 174.664 34.9719 174.829 35.1754Z" fill="white" fill-opacity="0.7"/>
<rect opacity="0.5" width="7.73498" height="19.662" rx="3.86749" transform="matrix(-1 0 0 1 222.172 33.3955)" fill="white"/>
<defs>
<filter id="filter0_d_1_389" x="3.40527" y="0.989258" width="229.767" height="89.924" filterUnits="userSpaceOnUse" color-interpolation-filters="sRGB">
<feFlood flood-opacity="0" result="BackgroundImageFix"/>
<feColorMatrix in="SourceAlpha" type="matrix" values="0 0 0 0 0 0 0 0 0 0 0 0 0 0 0 0 0 0 127 0" result="hardAlpha"/>
<feOffset dx="3" dy="3"/>
<feGaussianBlur stdDeviation="4"/>
<feColorMatrix type="matrix" values="0 0 0 0 0 0 0 0 0 0 0 0 0 0 0 0 0 0 0.17 0"/>
<feBlend mode="normal" in2="BackgroundImageFix" result="effect1_dropShadow_1_389"/>
<feBlend mode="normal" in="SourceGraphic" in2="effect1_dropShadow_1_389" result="shape"/>
</filter>
<filter id="filter1_d_1_389" x="0.593628" y="1.26465" width="94.7561" height="89.924" filterUnits="userSpaceOnUse" color-interpolation-filters="sRGB">
<feFlood flood-opacity="0" result="BackgroundImageFix"/>
<feColorMatrix in="SourceAlpha" type="matrix" values="0 0 0 0 0 0 0 0 0 0 0 0 0 0 0 0 0 0 127 0" result="hardAlpha"/>
<feOffset dx="3" dy="3"/>
<feGaussianBlur stdDeviation="4"/>
<feColorMatrix type="matrix" values="0 0 0 0 0 0 0 0 0 0 0 0 0 0 0 0 0 0 0.17 0"/>
<feBlend mode="normal" in2="BackgroundImageFix" result="effect1_dropShadow_1_389"/>
<feBlend mode="normal" in="SourceGraphic" in2="effect1_dropShadow_1_389" result="shape"/>
</filter>
<linearGradient id="paint0_linear_1_389" x1="14.1441" y1="5.98927" x2="27.1441" y2="79.9132" gradientUnits="userSpaceOnUse">
<stop stop-color="white" stop-opacity="0.12"/>
<stop offset="1" stop-color="white" stop-opacity="0"/>
</linearGradient>
<linearGradient id="paint1_linear_1_389" x1="53.2425" y1="6.26465" x2="53.2425" y2="80.1886" gradientUnits="userSpaceOnUse">
<stop stop-color="#D04701"/>
<stop offset="1" stop-color="#923100"/>
</linearGradient>
</defs>
</svg>
