<svg width="126" height="88" viewBox="0 0 126 88" fill="none" xmlns="http://www.w3.org/2000/svg">
<path d="M122.611 13.7749C121.935 11.0735 120.558 8.59834 118.619 6.59947C116.68 4.60059 114.248 3.14879 111.569 2.39069C101.778 4.06229e-07 62.6164 0 62.6164 0C62.6164 0 23.4547 2.03115e-07 13.6643 2.61837C10.9847 3.37647 8.55267 4.82828 6.61377 6.82715C4.67486 8.82602 3.29778 11.3012 2.62162 14.0026C0.829831 23.9385 -0.0466322 34.0178 0.00325386 44.1138C-0.0606156 54.2859 0.815903 64.4421 2.62162 74.4528C3.36706 77.0703 4.77499 79.4513 6.70938 81.3657C8.64377 83.2802 11.0392 84.6634 13.6643 85.3816C23.4547 88 62.6164 88 62.6164 88C62.6164 88 62.6164 88 62.6164 88C62.6165 88 101.778 88 111.569 85.3816C114.248 84.6235 116.68 83.1717 118.619 81.1729C120.558 79.174 121.935 76.6988 122.611 73.9974C124.389 64.1363 125.266 54.1339 125.23 44.1138C125.294 33.9418 124.417 23.7856 122.611 13.7749Z" fill="white" fill-opacity="0.3"/>
<path d="M62.6167 2.12953C63.3555 1.39066 63.5816 0.651794 63.5619 0.001875C62.9495 0 62.6164 0 62.6164 0C62.6164 2.0208 62.6165 2.12423 62.6167 2.12953ZM62.6167 2.12953C62.6167 2.12981 62.6168 2.12981 62.6168 2.12981L62.618 2.12981L62.6231 2.12981L62.6438 2.12982L62.727 2.12988L63.0543 2.13039C63.3421 2.13097 63.7659 2.13213 64.3092 2.13446C65.3958 2.13912 66.9598 2.14843 68.8676 2.16706C72.684 2.20434 77.8722 2.27888 83.3633 2.42786C88.8576 2.57693 94.6395 2.80013 99.648 3.13367C104.683 3.46902 108.774 3.90693 111.026 4.45059M62.6167 2.12953L111.026 4.45059M111.026 4.45059C113.33 5.10952 115.421 6.36174 117.09 8.08236C118.752 9.79575 119.937 11.9135 120.528 14.2254C122.302 24.0835 123.163 34.0842 123.1 44.1005L123.1 44.111L123.1 44.1215C123.135 53.9877 122.275 63.8367 120.528 73.5471C119.937 75.8589 118.752 77.9766 117.09 79.69C115.416 81.4161 113.317 82.6708 111.004 83.328C108.774 83.9218 104.688 84.4026 99.6346 84.7712C94.6298 85.1362 88.8509 85.3806 83.3579 85.5438C77.8683 85.707 72.6814 85.7886 68.8657 85.8294C66.9583 85.8498 65.3946 85.86 64.3083 85.8651C63.7652 85.8676 63.3415 85.8689 63.054 85.8696L62.7268 85.8701L62.6437 85.8702L62.623 85.8702H62.618H62.6168H62.6164H62.6161H62.6149H62.6099L62.5891 85.8702L62.5061 85.8701L62.1789 85.8696C61.8914 85.8689 61.4677 85.8676 60.9245 85.8651C59.8383 85.86 58.2746 85.8498 56.3672 85.8294C52.5515 85.7886 47.3646 85.707 41.875 85.5438C36.382 85.3806 30.6031 85.1362 25.5983 84.7712C20.5383 84.4021 16.4483 83.9205 14.2202 83.3256C11.9509 82.7036 9.88007 81.5072 8.20756 79.852C6.55771 78.2191 5.35039 76.1941 4.6983 73.9674C2.92894 64.1206 2.07021 54.1317 2.13302 44.1272L2.1331 44.1153L2.13304 44.1033C2.08392 34.1621 2.9447 24.2372 4.70459 14.453C5.2956 12.1411 6.48057 10.0234 8.14253 8.31005C9.81691 6.58388 11.9163 5.32914 14.2294 4.67192C16.4595 4.07818 20.5452 3.59736 25.5984 3.22879C30.6031 2.86375 36.382 2.6194 41.875 2.45617L111.026 4.45059Z" stroke="url(#paint0_linear_1_208)" stroke-width="4.25962"/>
<g filter="url(#filter0_d_1_208)">
<path d="M49.8092 58.0942C49.8092 60.1607 52.0395 61.458 53.8358 60.4365L78.4201 46.4555C80.2368 45.4223 80.2368 42.8041 78.4201 41.7709L53.8358 27.7899C52.0395 26.7684 49.8092 28.0657 49.8092 30.1322V58.0942Z" fill="url(#paint1_linear_1_208)"/>
</g>
<defs>
<filter id="filter0_d_1_208" x="48.9709" y="26.5953" width="42.4282" height="45.814" filterUnits="userSpaceOnUse" color-interpolation-filters="sRGB">
<feFlood flood-opacity="0" result="BackgroundImageFix"/>
<feColorMatrix in="SourceAlpha" type="matrix" values="0 0 0 0 0 0 0 0 0 0 0 0 0 0 0 0 0 0 127 0" result="hardAlpha"/>
<feOffset dx="5.38911" dy="5.38911"/>
<feGaussianBlur stdDeviation="3.11371"/>
<feComposite in2="hardAlpha" operator="out"/>
<feColorMatrix type="matrix" values="0 0 0 0 0 0 0 0 0 0 0 0 0 0 0 0 0 0 0.22 0"/>
<feBlend mode="normal" in2="BackgroundImageFix" result="effect1_dropShadow_1_208"/>
<feBlend mode="normal" in="SourceGraphic" in2="effect1_dropShadow_1_208" result="shape"/>
</filter>
<linearGradient id="paint0_linear_1_208" x1="-0.445803" y1="-0.237705" x2="102.846" y2="87.7845" gradientUnits="userSpaceOnUse">
<stop stop-color="#ACACAC"/>
<stop offset="0.463314" stop-color="#818181"/>
<stop offset="1" stop-color="#818181" stop-opacity="0"/>
</linearGradient>
<linearGradient id="paint1_linear_1_208" x1="34.077" y1="11.927" x2="72.1792" y2="8.22822" gradientUnits="userSpaceOnUse">
<stop stop-color="#1E6EA9"/>
<stop offset="0.520833" stop-color="#4BC270"/>
<stop offset="1" stop-color="#FFCB3C"/>
</linearGradient>
</defs>
</svg>
