<svg width="203" height="154" viewBox="0 0 203 154" fill="none" xmlns="http://www.w3.org/2000/svg">
<g opacity="0.5" filter="url(#filter0_d_0_354)">
<rect x="-81.1586" y="5.88757" width="264.683" height="128.135" rx="41.0746" fill="white" fill-opacity="0.04"/>
<g opacity="0.5" filter="url(#filter1_d_0_354)">
<path d="M38.8219 58.9275C36.9625 58.9275 36.0328 57.5975 36.0328 54.9376C36.0328 52.2518 37.6856 49.7985 40.9912 47.5776C44.3225 45.3309 48.1058 44.2075 52.3411 44.2075H53.6194C58.2936 44.2075 62.1157 45.4987 65.0855 48.0812C68.0553 50.6636 69.5402 54.0467 69.5402 58.2302C69.5402 62.388 68.3652 66.0163 66.0152 69.1153C63.691 72.2142 60.1659 75.7393 55.44 79.6904C50.7399 83.6158 48.3899 86.2757 48.3899 87.6702C48.3899 88.6516 50.0039 89.1422 53.232 89.1422C56.4601 89.1422 59.2362 88.9098 61.5604 88.445C63.8846 87.9801 65.6278 87.7477 66.7899 87.7477C67.952 87.7477 68.843 88.0963 69.4627 88.7936C70.0825 89.465 70.3924 90.3043 70.3924 91.3115V92.3574C70.3924 94.5525 69.3078 96.0245 67.1385 96.7734C65.7182 97.2641 62.5676 97.5094 57.6867 97.5094H55.2076L53.968 97.4707H52.7284C43.5349 97.4707 38.3829 97.277 37.2724 96.8896C36.1878 96.4764 35.6455 95.5209 35.6455 94.0231V92.9385C35.6455 90.6917 37.2337 87.6186 40.4101 83.7191C41.5464 82.3246 44.103 79.7292 48.08 75.933C52.0828 72.1109 54.6394 69.4768 55.7499 68.0307C58.0225 65.0867 59.1587 62.4267 59.1587 60.0509C59.1587 57.675 58.5519 55.7769 57.3381 54.3565C56.1502 52.9104 54.3812 52.1873 52.0312 52.1873C49.707 52.1873 47.4602 53.1041 45.291 54.9376C42.1662 57.5975 40.0098 58.9275 38.8219 58.9275ZM82.476 96.7347C80.5908 96.7347 79.2737 96.3989 78.5248 95.7275C77.7759 95.0561 77.4015 93.894 77.4015 92.2412C77.4015 91.828 77.5306 90.9758 77.7888 89.6846C78.2795 87.2312 78.5248 84.3776 78.5248 81.1237V71.4395L78.5636 67.4883V56.3321C78.5636 52.82 78.4861 50.6895 78.3311 49.9405C78.202 49.1916 77.9438 48.107 77.5564 46.6867C77.169 45.2405 76.9753 44.3754 76.9753 44.0913V43.0067C76.9753 42.4127 77.4273 41.8316 78.3311 41.2635C79.2608 40.6695 81.1202 40.3725 83.9092 40.3725C85.9236 40.3725 87.2019 41.1085 87.7442 42.5805C88.2865 44.0267 88.5577 48.1845 88.5577 55.0538C88.5577 61.9231 88.6351 66.068 88.7901 67.4883C89.0483 69.7609 89.7069 70.8972 90.7657 70.8972C91.6695 70.8972 93.4514 69.3477 96.1114 66.2488C96.757 65.4998 97.5446 64.441 98.4743 63.0723C99.404 61.6778 100.321 60.6577 101.225 60.0121C102.128 59.3665 103.6 59.0437 105.641 59.0437C109.179 59.0437 110.948 59.7022 110.948 61.0193C110.948 62.3105 109.153 64.7122 105.563 68.2243C101.974 71.7365 100.179 74.2802 100.179 75.8555C100.179 76.4495 102.425 79.7421 106.919 85.7334C111.412 91.7247 113.659 95.0302 113.659 95.65C113.659 96.6572 112.691 97.1608 110.754 97.1608H109.553C105.834 97.1608 103.239 96.4248 101.767 94.9528C101.173 94.3588 100.308 92.9255 99.1716 90.653C98.0353 88.3804 96.7053 86.2241 95.1817 84.1839C93.658 82.118 92.3539 81.085 91.2692 81.085C90.9335 81.085 90.4687 81.524 89.8747 82.402C89.3066 83.2542 89.0225 84.7908 89.0225 87.0117L89.5261 92.3961C89.5261 95.2885 87.1761 96.7347 82.476 96.7347ZM152.858 72.6791V74.0349C152.858 75.7393 152.497 76.7594 151.774 77.0951C151.051 77.4308 148.817 77.5987 145.072 77.5987C141.354 77.5987 139.417 77.7665 139.262 78.1022C139.21 78.2055 139.184 80.2328 139.184 84.1839C139.184 88.1351 139.004 90.3818 138.642 90.9241C138.306 91.4406 137.157 91.6989 135.194 91.6989H134.497C132.87 91.6989 131.941 91.1824 131.708 90.1494C131.605 89.7104 131.553 87.6186 131.553 83.874C131.553 80.1036 131.476 78.1151 131.321 77.9086C131.192 77.702 129.255 77.5987 125.51 77.5987C121.792 77.5987 119.764 77.5599 119.429 77.4824C118.447 77.25 117.957 76.5399 117.957 75.3519V73.9574C117.957 72.1238 118.266 71.065 118.886 70.781C119.532 70.4711 121.753 70.3161 125.549 70.3161C129.345 70.3161 131.321 70.1483 131.476 69.8126C131.527 69.7093 131.553 67.7595 131.553 63.9633C131.553 60.1671 131.631 58.0495 131.786 57.6104C132.096 56.7324 133.129 56.2934 134.885 56.2934H136.279C137.648 56.2934 138.461 56.6162 138.72 57.2618C139.004 57.9074 139.146 60.1542 139.146 64.002C139.146 67.8499 139.236 69.8642 139.417 70.045C139.598 70.2257 141.573 70.3161 145.344 70.3161C149.114 70.3161 151.167 70.3549 151.503 70.4323C152.407 70.6389 152.858 71.3878 152.858 72.6791Z" fill="url(#paint0_linear_0_354)" shape-rendering="crispEdges"/>
</g>
</g>
<defs>
<filter id="filter0_d_0_354" x="-86.7" y="-0.700001" width="305.267" height="154.267" filterUnits="userSpaceOnUse" color-interpolation-filters="sRGB">
<feFlood flood-opacity="0" result="BackgroundImageFix"/>
<feColorMatrix in="SourceAlpha" type="matrix" values="0 0 0 0 0 0 0 0 0 0 0 0 0 0 0 0 0 0 127 0" result="hardAlpha"/>
<feOffset dx="6.93333" dy="6.93333"/>
<feGaussianBlur stdDeviation="6.06667"/>
<feComposite in2="hardAlpha" operator="out"/>
<feColorMatrix type="matrix" values="0 0 0 0 0 0 0 0 0 0 0 0 0 0 0 0 0 0 0.15 0"/>
<feBlend mode="normal" in2="BackgroundImageFix" result="effect1_dropShadow_0_354"/>
<feBlend mode="normal" in="SourceGraphic" in2="effect1_dropShadow_0_354" result="shape"/>
</filter>
<filter id="filter1_d_0_354" x="34.7121" y="39.4392" width="131.08" height="71.0035" filterUnits="userSpaceOnUse" color-interpolation-filters="sRGB">
<feFlood flood-opacity="0" result="BackgroundImageFix"/>
<feColorMatrix in="SourceAlpha" type="matrix" values="0 0 0 0 0 0 0 0 0 0 0 0 0 0 0 0 0 0 127 0" result="hardAlpha"/>
<feOffset dx="6" dy="6"/>
<feGaussianBlur stdDeviation="3.46667"/>
<feComposite in2="hardAlpha" operator="out"/>
<feColorMatrix type="matrix" values="0 0 0 0 0 0 0 0 0 0 0 0 0 0 0 0 0 0 0.22 0"/>
<feBlend mode="normal" in2="BackgroundImageFix" result="effect1_dropShadow_0_354"/>
<feBlend mode="normal" in="SourceGraphic" in2="effect1_dropShadow_0_354" result="shape"/>
</filter>
<linearGradient id="paint0_linear_0_354" x1="49.4993" y1="39.2308" x2="147.652" y2="118.688" gradientUnits="userSpaceOnUse">
<stop stop-color="white"/>
<stop offset="0.114583" stop-color="#727272"/>
<stop offset="1" stop-color="#727272" stop-opacity="0"/>
</linearGradient>
</defs>
</svg>
