<svg width="158" height="157" viewBox="0 0 158 157" fill="none" xmlns="http://www.w3.org/2000/svg">
<g id="ai - inactive" opacity="0.5" filter="url(#filter0_d_0_347)">
<g clip-path="url(#clip0_0_347)">
<rect id="Rectangle 2691" x="10" y="9.5" width="127" height="127" rx="25.77" fill="white" fill-opacity="0.04"/>
<g id="Rectangle 2692" filter="url(#filter1_d_0_347)">
<rect x="12.5" y="12" width="122" height="122" rx="23.2681" stroke="url(#paint0_linear_0_347)" stroke-width="5"/>
</g>
<g id="Vector" filter="url(#filter2_d_0_347)">
<path d="M91.1937 44.6903V37.6129M73.5002 44.6903V37.6129M55.8066 44.6903V37.6129M55.8066 101.309V108.387M73.5002 101.309V108.387M91.1937 101.309V108.387M101.81 90.6934H108.887M101.81 72.9999H108.887M101.81 55.3064H108.887M45.1907 90.6934H38.1133M45.1907 72.9999H38.1133M45.1907 55.3064H38.1133M101.81 46.8135V99.1862C101.81 100.359 100.859 101.309 99.6865 101.309H47.3137C46.1411 101.309 45.1905 100.359 45.1905 99.1862V46.8135C45.1905 45.6409 46.1411 44.6903 47.3137 44.6903H99.6865C100.859 44.6903 101.81 45.6409 101.81 46.8135Z" stroke="#353535" stroke-width="7.36232" stroke-linecap="round" stroke-linejoin="round"/>
</g>
<g id="AI" filter="url(#filter3_d_0_347)">
<path d="M65.8921 74.3804V74.5529C65.8921 74.7542 66.5488 74.8549 67.8621 74.8549H69.0844C70.2827 74.8549 70.8818 74.7638 70.8818 74.5817V74.4091C70.8818 73.556 70.206 71.3703 68.8543 67.8521C68.6721 67.3728 68.5475 67.1331 68.4804 67.1331C68.4612 67.1331 68.4085 67.2385 68.3222 67.4494C68.2456 67.6508 68.1497 67.876 68.0347 68.1253C66.6063 71.2217 65.8921 73.3067 65.8921 74.3804ZM77.2807 80.7505V81.0381C77.2807 81.9009 77.0362 82.4904 76.5473 82.8068C76.231 83.0081 75.6894 83.1088 74.9225 83.1088H74.5773C73.7913 83.1088 73.264 82.8739 72.9956 82.4042C72.8614 82.1741 72.7128 81.503 72.5498 80.391C72.3869 79.279 72.1041 78.5121 71.7014 78.0903C71.2988 77.6685 70.5415 77.4576 69.4295 77.4576C66.8987 77.4576 65.4128 77.6541 64.9718 78.0472C64.5308 78.4402 64.2145 79.2407 64.0228 80.4485C63.831 81.6468 63.6872 82.3179 63.5914 82.4617C63.3421 82.8451 62.8436 83.0369 62.0959 83.0369C61.3482 83.0369 60.8305 82.8355 60.5429 82.4329C60.2649 82.0303 60.1259 81.4982 60.1259 80.8368C60.1259 80.5396 60.5285 79.5858 61.3338 77.9753C61.4105 77.8315 62.1343 75.7752 63.5051 71.8064C64.876 67.8281 65.7483 65.4507 66.1222 64.6742C66.5056 63.8881 66.8747 63.3848 67.2294 63.1643C67.5841 62.9439 68.1113 62.8336 68.8112 62.8336C69.5205 62.8336 70.0334 63.0062 70.3498 63.3513C70.6661 63.6868 71.0687 64.3818 71.5576 65.4363C72.0561 66.4908 72.7368 68.2211 73.5995 70.6273C74.4719 73.0335 75.1094 74.8549 75.512 76.0915C75.9146 77.3186 76.1495 78.0136 76.2166 78.1766C76.926 79.8063 77.2807 80.6642 77.2807 80.7505Z" fill="#353535"/>
<path d="M80.6478 82.7349C80.1972 82.4761 79.972 82.1262 79.972 81.6852C79.972 81.2346 80.1445 80.7265 80.4896 80.1609C80.8443 79.5858 81.0648 78.9818 81.1511 78.3491C81.2374 77.7068 81.2805 75.8423 81.2805 72.7555C81.2805 69.6687 81.247 67.8856 81.1798 67.4063C81.1127 66.9174 80.8875 66.3806 80.504 65.7958C80.1206 65.211 79.9288 64.6694 79.9288 64.1709C79.9288 63.6628 80.1925 63.3177 80.7197 63.1356C81.247 62.9439 82.0953 62.848 83.2649 62.848H83.8401C84.6453 62.848 85.2349 62.9822 85.6087 63.2506C85.9922 63.519 86.1839 63.9408 86.1839 64.516C86.1839 64.7557 86.0258 65.2062 85.7094 65.8677C85.3931 66.5196 85.2109 67.0804 85.163 67.5501C85.115 68.0102 85.0911 69.87 85.0911 73.1294C85.0911 76.3791 85.1294 78.2916 85.2061 78.8668C85.2924 79.442 85.4841 79.9932 85.7813 80.5204C86.0881 81.0381 86.2414 81.5414 86.2414 82.0303C86.2414 82.778 85.4889 83.1519 83.9839 83.1519H83.4087C83.0252 83.1327 82.5795 83.1231 82.0714 83.1231C81.5729 83.1231 81.0984 82.9937 80.6478 82.7349Z" fill="#353535"/>
</g>
</g>
</g>
<defs>
<filter id="filter0_d_0_347" x="0.797101" y="0.297101" width="156.449" height="156.449" filterUnits="userSpaceOnUse" color-interpolation-filters="sRGB">
<feFlood flood-opacity="0" result="BackgroundImageFix"/>
<feColorMatrix in="SourceAlpha" type="matrix" values="0 0 0 0 0 0 0 0 0 0 0 0 0 0 0 0 0 0 127 0" result="hardAlpha"/>
<feOffset dx="5.52174" dy="5.52174"/>
<feGaussianBlur stdDeviation="7.36232"/>
<feColorMatrix type="matrix" values="0 0 0 0 0 0 0 0 0 0 0 0 0 0 0 0 0 0 0.17 0"/>
<feBlend mode="normal" in2="BackgroundImageFix" result="effect1_dropShadow_0_347"/>
<feBlend mode="normal" in="SourceGraphic" in2="effect1_dropShadow_0_347" result="shape"/>
</filter>
<filter id="filter1_d_0_347" x="1.33333" y="0.833333" width="154.733" height="154.733" filterUnits="userSpaceOnUse" color-interpolation-filters="sRGB">
<feFlood flood-opacity="0" result="BackgroundImageFix"/>
<feColorMatrix in="SourceAlpha" type="matrix" values="0 0 0 0 0 0 0 0 0 0 0 0 0 0 0 0 0 0 127 0" result="hardAlpha"/>
<feOffset dx="5.2" dy="5.2"/>
<feGaussianBlur stdDeviation="6.93333"/>
<feColorMatrix type="matrix" values="0 0 0 0 0 0 0 0 0 0 0 0 0 0 0 0 0 0 0.17 0"/>
<feBlend mode="normal" in2="BackgroundImageFix" result="effect1_dropShadow_0_347"/>
<feBlend mode="normal" in="SourceGraphic" in2="effect1_dropShadow_0_347" result="shape"/>
</filter>
<filter id="filter2_d_0_347" x="34.4321" y="33.9318" width="89.1797" height="89.1797" filterUnits="userSpaceOnUse" color-interpolation-filters="sRGB">
<feFlood flood-opacity="0" result="BackgroundImageFix"/>
<feColorMatrix in="SourceAlpha" type="matrix" values="0 0 0 0 0 0 0 0 0 0 0 0 0 0 0 0 0 0 127 0" result="hardAlpha"/>
<feOffset dx="5.52174" dy="5.52174"/>
<feGaussianBlur stdDeviation="2.76087"/>
<feColorMatrix type="matrix" values="0 0 0 0 0 0 0 0 0 0 0 0 0 0 0 0 0 0 0.17 0"/>
<feBlend mode="normal" in2="BackgroundImageFix" result="effect1_dropShadow_0_347"/>
<feBlend mode="normal" in="SourceGraphic" in2="effect1_dropShadow_0_347" result="shape"/>
</filter>
<filter id="filter3_d_0_347" x="50.923" y="53.6307" width="55.5648" height="49.7675" filterUnits="userSpaceOnUse" color-interpolation-filters="sRGB">
<feFlood flood-opacity="0" result="BackgroundImageFix"/>
<feColorMatrix in="SourceAlpha" type="matrix" values="0 0 0 0 0 0 0 0 0 0 0 0 0 0 0 0 0 0 127 0" result="hardAlpha"/>
<feOffset dx="5.52174" dy="5.52174"/>
<feGaussianBlur stdDeviation="7.36232"/>
<feColorMatrix type="matrix" values="0 0 0 0 0 0 0 0 0 0 0 0 0 0 0 0 0 0 0.17 0"/>
<feBlend mode="normal" in2="BackgroundImageFix" result="effect1_dropShadow_0_347"/>
<feBlend mode="normal" in="SourceGraphic" in2="effect1_dropShadow_0_347" result="shape"/>
</filter>
<linearGradient id="paint0_linear_0_347" x1="13.4095" y1="9.50001" x2="66.3096" y2="113.526" gradientUnits="userSpaceOnUse">
<stop stop-color="white" stop-opacity="0.12"/>
<stop offset="1" stop-color="white" stop-opacity="0"/>
</linearGradient>
<clipPath id="clip0_0_347">
<rect x="10" y="9.5" width="127" height="127" rx="25.7681" fill="white"/>
</clipPath>
</defs>
</svg>
