<svg width="24" height="25" viewBox="0 0 24 25" fill="none" xmlns="http://www.w3.org/2000/svg">
<g id="Frame" clip-path="url(#clip0_0_140)">
<path id="Vector" d="M11.6226 7.7221C10.7466 7.7221 9.3906 6.7261 7.9626 6.7621C6.0786 6.7861 4.3506 7.8541 3.3786 9.5461C1.4226 12.9421 2.8746 17.9581 4.7826 20.7181C5.7186 22.0621 6.8226 23.5741 8.2866 23.5261C9.6906 23.4661 10.2186 22.6141 11.9226 22.6141C13.6146 22.6141 14.0946 23.5261 15.5826 23.4901C17.0946 23.4661 18.0546 22.1221 18.9786 20.7661C20.0466 19.2061 20.4906 17.6941 20.5146 17.6101C20.4786 17.5981 17.5746 16.4821 17.5386 13.1221C17.5146 10.3141 19.8306 8.9701 19.9386 8.9101C18.6186 6.9781 16.5906 6.7621 15.8826 6.7141C14.0346 6.5701 12.4866 7.7221 11.6226 7.7221ZM14.7426 4.8901C15.5226 3.9541 16.0386 2.6461 15.8946 1.3501C14.7786 1.3981 13.4346 2.0941 12.6306 3.0301C11.9106 3.8581 11.2866 5.1901 11.4546 6.4621C12.6906 6.5581 13.9626 5.8261 14.7426 4.8901Z" fill="white"/>
</g>
<defs>
<clipPath id="clip0_0_140">
<rect width="24" height="24" fill="white" transform="translate(0 0.5)"/>
</clipPath>
</defs>
</svg>
