<svg width="49" height="45" viewBox="0 0 49 45" fill="none" xmlns="http://www.w3.org/2000/svg">
<path fill-rule="evenodd" clip-rule="evenodd" d="M4.15449 10.5437L5.26048 10.2012L5.9946 9.9738L6.8472 9.70972L10.5949 8.54893L15.3811 7.06646L16.1152 6.83908L16.9678 6.575L20.7155 5.41421L25.5017 3.93174L26.2358 3.70436L27.0884 3.44028L30.8361 2.27949L37.2765 0.284663C38.3094 -0.0352577 39.4314 0.0522817 40.403 0.533978C41.3768 1.01679 42.1364 1.86615 42.4863 2.91752L43.274 5.28443C43.6248 6.33849 43.5255 7.48418 43.0049 8.4613C42.4861 9.43516 41.6014 10.1468 40.5669 10.4672L26.6318 14.7834L40.9055 15.7946C41.9824 15.8709 43.0024 16.3576 43.7329 17.1741C44.4661 17.9935 44.8442 19.0771 44.7597 20.187L44.4794 23.8693C43.7636 23.6818 43.0257 23.5487 42.2704 23.4749L42.5336 20.0176C42.5711 19.5244 42.4041 19.0371 42.0691 18.6628C41.7342 18.2884 41.2589 18.0578 40.7477 18.0216L20.7509 16.6049L15.6056 16.2404L14.6097 16.1699L17.481 15.2805L20.4906 14.3483L21.7853 13.9473L22.452 13.7408L23.0013 13.5707L27.6016 12.1458L31.9059 10.8126L32.5726 10.6061L33.1219 10.436L37.7222 9.01108L39.9064 8.33456C40.3944 8.1834 40.8002 7.85141 41.0345 7.41161C41.1455 7.20319 41.2137 6.97864 41.2381 6.74996C41.2651 6.49609 41.2381 6.23712 41.1557 5.98943L40.368 3.62252C40.2113 3.15171 39.8671 2.76023 39.4113 2.53421C38.9554 2.30818 38.4251 2.26612 37.9371 2.41728L34.5902 3.45394L31.4967 4.41211L34.2673 5.78579L34.3981 5.85064L36.6982 6.99102L37.1688 7.22432L34.0753 8.18249L32.5685 8.64919L32.098 8.4159L26.8964 5.83698L24.4695 6.58866L21.3761 7.54682L24.1467 8.92051L24.2775 8.98536L26.5776 10.1257L27.0482 10.359L23.9547 11.3172L22.4479 11.7839L21.9773 11.5506L16.7758 8.9717L14.3489 9.72338L11.2554 10.6815L14.0261 12.0552L14.1569 12.1201L16.457 13.2605L16.9275 13.4938L15.3454 13.9838L13.8341 14.4519L12.3273 14.9186L11.8567 14.6853L9.62431 13.5785L6.65515 12.1064L4.81504 12.6764C4.32701 12.8275 3.92122 13.1595 3.68692 13.5993C3.60639 13.7505 3.54839 13.9101 3.51331 14.0737C3.47571 14.249 3.46444 14.4288 3.47996 14.6074C3.4921 14.747 3.52061 14.8859 3.56572 15.0215L4.1272 16.7086C4.04874 16.891 4.0001 17.086 3.98482 17.2866L3.96729 17.5169L3.76697 20.1485L2.38068 38.3601C2.34314 38.8533 2.5102 39.3406 2.84512 39.715C3.18005 40.0893 3.65539 40.3199 4.16657 40.3561L27.3788 42.0006C27.6407 42.8038 27.9723 43.5756 28.3666 44.3087L4.00881 42.5831C2.93184 42.5068 1.9119 42.0201 1.18133 41.2036C0.44814 40.3842 0.0700492 39.3006 0.154541 38.1907L1.75869 17.1172C1.76729 17.0041 1.78059 16.8921 1.79843 16.7813L1.44738 15.7265C1.09658 14.6724 1.19597 13.5267 1.71651 12.5496C2.2353 11.5758 3.12003 10.8642 4.15449 10.5437Z" fill="#4BC270"/>
<path d="M39.8712 33.9764V36.4537H30.0212V33.9764H39.8712ZM36.2984 30.0779V40.5398H33.604V30.0779H36.2984Z" fill="#4BC270"/>
<path d="M48.3987 27.5808V41.9807H45.5562V30.8576L42.1413 31.9432V29.7028L48.0927 27.5808H48.3987Z" fill="#4BC270"/>
</svg>
