<svg width="204" height="62" viewBox="0 0 204 62" fill="none" xmlns="http://www.w3.org/2000/svg">
<path id="Combined Shape" fill-rule="evenodd" clip-rule="evenodd" d="M18.5171 61.5936H21.3988C24.3894 60.9508 26.3538 59.0005 27.9648 56.5824C28.5682 55.6759 29.2149 54.7974 29.8627 53.9215C31.7197 51.4116 34.1271 49.8296 37.3405 49.6266C37.5366 49.6141 37.7323 49.5978 37.9116 49.5829C37.9958 49.5759 38.0763 49.5692 38.1517 49.5633C37.0295 47.7002 35.9377 45.8877 34.963 44.269C35.402 44.1069 35.8144 43.9411 36.2108 43.7817C37.0518 43.4435 37.8208 43.1342 38.6189 42.9508C40.3042 42.5626 41.5842 41.5571 42.7636 40.4608C43.6834 39.6059 44.474 38.6106 45.2609 37.6199L45.261 37.6198C45.4307 37.4062 45.6002 37.1928 45.7708 36.9811C46.1874 36.4638 46.5655 35.8837 46.813 35.2736C46.9734 34.8781 47.123 34.4781 47.2682 34.0762C47.5741 34.7634 48.0201 35.368 48.6062 35.8898C49.8324 36.9817 51.4239 37.5276 53.3807 37.5276C54.6133 37.5276 55.6615 37.2853 56.5256 36.8007C57.3897 36.3161 58.1266 35.6629 58.7366 34.8409C58.8382 35.258 58.9621 35.6629 59.1082 36.0554C59.2544 36.448 59.4164 36.8038 59.5943 37.1228L65.9603 37.1412C65.5918 36.2456 65.3154 35.3439 65.1312 34.436C64.9469 33.5282 64.8548 32.5406 64.8548 31.4733V23.9652C64.8548 21.6833 64.0638 19.929 62.4818 18.7022C60.8998 17.4754 58.8382 16.862 56.2969 16.862C53.5777 16.862 51.3921 17.4723 49.7403 18.693C49.3959 18.9475 49.0893 19.215 48.8206 19.4953C48.7878 19.3259 48.7562 19.1565 48.7263 18.9872C47.7567 13.497 44.9657 9.16126 40.2222 6.12895C38.6581 5.12907 37.0413 4.16081 35.3364 3.43895C32.4752 2.22786 29.4315 1.55447 26.3796 0.965763C25.7661 0.847906 25.141 0.787167 24.5171 0.726536L24.2662 0.702018C23.6995 0.645435 23.1322 0.602091 22.5646 0.558729L22.5645 0.558724C22.3133 0.539536 22.0621 0.520344 21.8109 0.5H19.3406C19.3031 0.520606 19.2663 0.545249 19.2296 0.569862C19.1517 0.622026 19.074 0.674053 18.99 0.687224C18.3502 0.788742 17.7099 0.885203 17.0694 0.98167C16.3453 1.09074 15.6211 1.19983 14.8978 1.31623C12.7571 1.66058 10.7613 2.48753 8.99448 3.64913C7.24416 4.80002 5.87495 6.40035 4.83941 8.28126C3.58778 10.5545 2.75594 12.9139 2.67497 15.5105C2.67098 15.6376 2.69274 15.7719 2.71426 15.9047C2.7483 16.1148 2.78174 16.3211 2.71159 16.489C2.0486 18.0746 2.75372 19.5793 3.34925 20.8502L3.37892 20.9135C4.14217 22.5424 4.63312 23.7861 3.37118 25.3895C2.45477 26.5527 2.20568 27.9668 3.398 29.2906C3.59861 29.5135 3.58107 30.1517 3.4047 30.4471C2.51258 31.9449 1.55971 33.4088 0.607384 34.8719L0.607304 34.872L0.349639 35.268C-0.325425 36.3066 -0.00877795 37.2703 1.17684 37.6621C1.56256 37.7898 1.953 37.9043 2.38388 38.0308L2.38436 38.0309L2.38457 38.031C2.59064 38.0915 2.80595 38.1546 3.03442 38.2233C2.94989 38.414 2.87824 38.596 2.81021 38.7688C2.67323 39.1167 2.55093 39.4273 2.36761 39.6976L2.32923 39.7541C1.48442 40.9978 1.48311 40.9997 2.61979 42.007C2.66949 42.0508 2.70661 42.1081 2.73994 42.1595L2.73996 42.1595C2.75435 42.1817 2.76804 42.2028 2.78173 42.2213L2.45228 42.7216L2.45156 42.7227C2.24368 43.0384 2.04119 43.346 1.84159 43.6487C3.11023 44.7047 3.32064 45.2832 2.93077 46.4978C2.20568 48.7583 3.06279 50.1178 5.43402 50.4209C7.64563 50.7035 9.75447 50.182 11.8646 49.6601C12.0508 49.6141 12.2371 49.568 12.4234 49.5225C12.7427 49.445 13.3172 49.4148 13.4131 49.5745C13.6309 49.9378 13.8898 50.2841 14.149 50.6308C14.9007 51.6364 15.6554 52.6458 15.4192 54.0842C15.3795 54.3255 15.4316 54.7 15.593 54.8357C17.3067 56.2727 17.4263 58.246 17.4351 60.2248C17.4387 61.0487 17.7352 61.4614 18.5171 61.5936ZM56.0491 25.3454C53.172 25.3454 50.9704 25.8001 49.4443 26.7095C49.4716 25.9941 49.4551 25.2759 49.4386 24.5594L49.4386 24.5591C49.4308 24.2215 49.4231 23.8843 49.4199 23.5479C49.4193 23.4865 49.4181 23.4252 49.4163 23.3638L53.6666 23.3764C53.6666 22.6648 53.8477 22.1403 54.2098 21.803C54.572 21.4656 55.1215 21.2969 55.8585 21.2969C56.7226 21.2969 57.3611 21.5239 57.774 21.9778C58.187 22.4317 58.3935 23.0819 58.3935 23.9284V25.3454H56.0491ZM83.5287 31.5469C83.5287 31.0562 83.2396 30.6176 82.6614 30.2312C82.0833 29.8447 81.0318 29.4981 79.507 29.1914C77.1054 28.7375 75.2948 28.0321 74.0749 27.0752C72.8551 26.1183 72.2452 24.8117 72.2452 23.1555C72.2452 21.4012 73.0076 19.9137 74.5324 18.693C76.0572 17.4723 78.122 16.862 80.7268 16.862C83.4715 16.862 85.657 17.4539 87.2835 18.6378C88.9099 19.8217 89.685 21.3521 89.6088 23.2291L89.5706 23.3395H83.319C83.319 22.5544 83.1125 21.9594 82.6995 21.5545C82.2866 21.1497 81.6227 20.9473 80.7078 20.9473C80.0343 20.9473 79.4689 21.1251 79.0115 21.4809C78.554 21.8367 78.3253 22.2906 78.3253 22.8427C78.3253 23.3702 78.589 23.818 79.1163 24.186C79.6436 24.5541 80.7078 24.8853 82.3088 25.1798C84.8247 25.6582 86.6894 26.3728 87.9029 27.3236C89.1164 28.2744 89.7231 29.6208 89.7231 31.3629C89.7231 33.154 88.9004 34.6293 87.2549 35.7886C85.6094 36.9479 83.4334 37.5276 80.7268 37.5276C77.9187 37.5276 75.6982 36.8406 74.0654 35.4666C72.4326 34.0925 71.6543 32.559 71.7306 30.866L71.7687 30.7556H77.601C77.6264 31.7003 77.9219 32.3811 78.4873 32.7983C79.0527 33.2154 79.8564 33.4239 80.8984 33.4239C81.7624 33.4239 82.4168 33.2614 82.8616 32.9363C83.3063 32.6112 83.5287 32.148 83.5287 31.5469ZM100.378 12.2798V17.23H103.866V21.5361H100.378V30.6636C100.378 31.3751 100.527 31.8873 100.826 32.2002C101.124 32.513 101.528 32.6694 102.036 32.6694C102.443 32.6694 102.763 32.6572 102.998 32.6326C103.234 32.6081 103.535 32.559 103.904 32.4854L104.361 37.0859C103.65 37.2454 103.008 37.3589 102.436 37.4264C101.864 37.4939 101.191 37.5276 100.416 37.5276C98.2938 37.5276 96.6864 36.9817 95.5937 35.8898C94.5009 34.7979 93.9545 33.0681 93.9545 30.7004V21.5361H91.0574V17.23H93.9545V12.2798H100.378ZM127.348 11.3413H117.246V37.1411H116.217V11.3413H106.115V10.3476H127.348V11.3413ZM135.753 33.5343L136.515 35.5218H136.63L136.744 35.2273L143.873 17.23H145.016L135.848 40.4535C135.289 41.8521 134.638 42.99 133.895 43.8671C133.151 44.7443 131.966 45.1829 130.34 45.1829C130.099 45.1829 129.832 45.1614 129.54 45.1185C129.247 45.0756 129.031 45.0295 128.891 44.9805L129.063 44.042C129.203 44.0788 129.412 44.1156 129.692 44.1524C129.972 44.1892 130.188 44.2076 130.34 44.2076C131.509 44.2076 132.421 43.8763 133.075 43.2139C133.73 42.5514 134.311 41.5699 134.819 40.2695L136.058 37.0307L127.843 17.23H128.968L135.753 33.5343ZM164.705 27.5536C164.705 30.6207 164.019 33.0497 162.646 34.8409C161.274 36.632 159.381 37.5276 156.966 37.5276C155.353 37.5276 153.945 37.2148 152.745 36.5891C151.544 35.9634 150.607 35.1169 149.933 34.0496V44.7965H148.904V17.23H149.705L149.914 20.8C150.6 19.5732 151.534 18.6102 152.716 17.9109C153.898 17.2116 155.302 16.862 156.928 16.862C159.355 16.862 161.258 17.7913 162.637 19.6499C164.015 21.5085 164.705 24.0143 164.705 27.1672V27.5536ZM163.657 27.1672C163.657 24.4068 163.082 22.1649 161.932 20.4412C160.782 18.7175 159.121 17.8557 156.948 17.8557C154.953 17.8557 153.403 18.3403 152.297 19.3095C151.192 20.2786 150.404 21.4686 149.934 22.8795V32.191C150.442 33.5159 151.293 34.571 152.488 35.3561C153.682 36.1413 155.182 36.5339 156.986 36.5339C159.159 36.5339 160.814 35.7242 161.951 34.1048C163.088 32.4854 163.657 30.3017 163.657 27.5536V27.1672ZM177.342 37.5276C174.991 37.5276 172.961 36.6106 171.252 34.7765C169.543 32.9424 168.688 30.6636 168.688 27.9401V26.7623C168.688 23.9039 169.514 21.5392 171.166 19.6683C172.818 17.7974 174.857 16.862 177.284 16.862C179.61 16.862 181.506 17.5981 182.974 19.0702C184.441 20.5424 185.175 22.5176 185.175 24.9957V26.5231H169.718V27.9401C169.718 30.3446 170.448 32.3781 171.91 34.0404C173.371 35.7027 175.182 36.5339 177.342 36.5339C178.879 36.5339 180.166 36.3315 181.201 35.9266C182.237 35.5218 183.123 34.9145 183.86 34.1048L184.413 34.8777C183.6 35.7487 182.612 36.4081 181.449 36.8559C180.286 37.3037 178.917 37.5276 177.342 37.5276ZM177.285 17.8557C175.239 17.8557 173.536 18.5764 172.177 20.0179C170.817 21.4594 170.048 23.2598 169.87 25.419L169.928 25.5294H184.146V24.9221C184.146 22.8979 183.511 21.2141 182.24 19.8707C180.97 18.5274 179.318 17.8557 177.285 17.8557ZM202.616 32.2646C202.616 31.2095 202.149 30.2496 201.215 29.3847C200.281 28.5197 198.651 27.8419 196.326 27.3512C193.873 26.8482 192.098 26.2011 190.999 25.4098C189.899 24.6185 189.35 23.4438 189.35 21.8858C189.35 20.4627 189.972 19.2696 191.218 18.3066C192.463 17.3435 194.14 16.862 196.25 16.862C198.524 16.862 200.316 17.3772 201.624 18.4078C202.933 19.4383 203.556 20.7816 203.492 22.4378L203.454 22.5483H202.577C202.577 21.2478 202.009 20.1406 200.872 19.2267C199.734 18.3127 198.194 17.8557 196.25 17.8557C194.318 17.8557 192.857 18.2575 191.866 19.061C190.875 19.8646 190.379 20.7939 190.379 21.849C190.379 22.8918 190.798 23.7812 191.637 24.5173C192.476 25.2534 194.14 25.8974 196.631 26.4495C198.931 26.9648 200.675 27.6671 201.863 28.5566C203.051 29.446 203.645 30.6881 203.645 32.283C203.645 33.8411 202.984 35.1047 201.663 36.0738C200.341 37.043 198.588 37.5276 196.402 37.5276C194 37.5276 192.117 37.0093 190.751 35.9726C189.385 34.936 188.746 33.6754 188.835 32.191L188.873 32.0806H189.712C189.814 33.6509 190.512 34.7857 191.809 35.485C193.105 36.1843 194.636 36.5339 196.402 36.5339C198.308 36.5339 199.82 36.1045 200.938 35.2457C202.056 34.387 202.616 33.3933 202.616 32.2646ZM57.0975 32.7246C56.5638 32.97 55.9793 33.0927 55.344 33.0927C54.7086 33.0927 54.1908 32.9178 53.7906 32.5682C53.3903 32.2186 53.1902 31.7616 53.1902 31.1972C53.1902 30.4611 53.4221 29.8539 53.8859 29.3754C54.3497 28.897 55.0898 28.6577 56.1064 28.6577H58.3935V31.7677C58.0632 32.1603 57.6312 32.4792 57.0975 32.7246ZM31.8427 21.9868L31.8128 21.9001H26.886C26.8161 23.2688 26.5266 24.2664 26.0174 24.8929C25.5083 25.5194 24.6447 25.8327 23.4268 25.8327C22.1689 25.8327 21.1805 25.3845 20.4617 24.4881C19.7429 23.5917 19.3835 22.4157 19.3835 20.9603V16.5361C19.3835 15.0902 19.713 13.9215 20.3719 13.03C21.0308 12.1384 21.9343 11.6926 23.0823 11.6926C24.4401 11.6926 25.401 12.0251 25.965 12.6902C26.5291 13.3553 26.8461 14.3721 26.9159 15.7409H31.8427L31.8727 15.6541C31.683 13.1866 30.8594 11.2829 29.4018 9.94312C27.9442 8.60332 25.8378 7.93343 23.0823 7.93343C20.4867 7.93343 18.3777 8.73585 16.7554 10.3407C15.1331 11.9456 14.322 14.0203 14.322 16.565V20.9603C14.322 23.5146 15.1655 25.5917 16.8527 27.1918C18.5399 28.7918 20.7313 29.5918 23.4268 29.5918C26.1123 29.5918 28.1614 28.9412 29.574 27.64C30.9867 26.3387 31.7429 24.4544 31.8427 21.9868Z" fill="url(#paint0_linear_0_271)"/>
<defs>
<linearGradient id="paint0_linear_0_271" x1="89.8433" y1="-23.2981" x2="180.526" y2="81.468" gradientUnits="userSpaceOnUse">
<stop stop-color="#1E6EA9"/>
<stop offset="0.520833" stop-color="#4BC270"/>
<stop offset="1" stop-color="#FFCB3C"/>
</linearGradient>
</defs>
</svg>
