<svg width="147" height="149" viewBox="0 0 147 149" fill="none" xmlns="http://www.w3.org/2000/svg">
<path d="M96.6597 74.4986L96.6597 74.5006C96.6611 74.9694 96.5495 75.4314 96.3346 75.8468C96.1198 76.2623 95.8081 76.6187 95.4268 76.8856L95.4255 76.8865L61.557 100.756L61.5564 100.756C61.124 101.062 60.6168 101.242 60.0902 101.277C59.5637 101.312 59.0375 101.2 58.5692 100.954C58.1009 100.709 57.7082 100.338 57.4344 99.8819C57.1605 99.426 57.0162 98.9028 57.0175 98.3695V98.3684V50.6299L57.0175 50.6296C57.0172 50.0967 57.1622 49.5741 57.4363 49.1187C57.7104 48.6634 58.103 48.293 58.5711 48.0474C59.0391 47.8017 59.5648 47.6902 60.0911 47.7245C60.6173 47.7589 61.1243 47.9379 61.557 48.2424C61.557 48.2425 61.5571 48.2426 61.5572 48.2426L95.4255 72.1117L95.4259 72.112C95.8069 72.3798 96.1182 72.7366 96.3331 73.1522C96.5481 73.5678 96.6602 74.0297 96.6597 74.4986Z" fill="black" stroke="url(#paint0_linear_0_310)"/>
<defs>
<linearGradient id="paint0_linear_0_310" x1="74.4479" y1="25.9637" x2="114.062" y2="36.1902" gradientUnits="userSpaceOnUse">
<stop stop-color="#1E6EA9"/>
<stop offset="0.520833" stop-color="#4BC270"/>
<stop offset="1" stop-color="#FFCB3C"/>
</linearGradient>
</defs>
</svg>
