<svg width="129" height="98" viewBox="0 0 129 98" fill="none" xmlns="http://www.w3.org/2000/svg">
<g id="Frame 1000004541" clip-path="url(#clip0_0_181)">
<path id="Subtract" opacity="0.5" fill-rule="evenodd" clip-rule="evenodd" d="M103.66 63.0222C103.66 59.9094 106.918 57.8703 109.717 59.2308L123.866 66.106C124.966 66.6404 126.272 66.5833 127.317 65.9551C128.363 65.3269 129 64.2171 129 63.0222V13.7667C129 12.5718 128.363 11.462 127.317 10.8338C126.272 10.2056 124.966 10.1485 123.866 10.6829L109.717 17.5581C106.918 18.9186 103.66 16.8795 103.66 13.7667C103.66 6.42192 97.5333 0.467773 89.9759 0.467773H34.2272C26.6699 0.467773 20.5435 6.42192 20.5435 13.7667V63.0222C20.5435 70.367 26.6699 76.3211 34.2272 76.3211H89.9759C97.5333 76.3211 103.66 70.367 103.66 63.0222ZM62.1111 47.0372C67.4653 47.0372 71.8057 42.8188 71.8057 37.6152C71.8057 32.4116 67.4653 28.1933 62.1111 28.1933C56.7569 28.1933 52.4165 32.4116 52.4165 37.6152C52.4165 42.8188 56.7569 47.0372 62.1111 47.0372Z" fill="url(#paint0_linear_0_181)"/>
<g id="Subtract_2" opacity="0.5" filter="url(#filter0_d_0_181)">
<mask id="path-2-inside-1_0_181" fill="white">
<path fill-rule="evenodd" clip-rule="evenodd" d="M103.66 63.0222V56.2871L123.866 66.106C124.966 66.6404 126.272 66.5833 127.317 65.9551C128.363 65.3269 129 64.2171 129 63.0222V13.7667C129 12.5718 128.363 11.462 127.317 10.8338C126.272 10.2056 124.966 10.1485 123.866 10.6829L103.66 20.5018V13.7667C103.66 6.42192 97.5333 0.467773 89.9759 0.467773H34.2272C26.6699 0.467773 20.5435 6.42192 20.5435 13.7667V63.0222C20.5435 70.367 26.6699 76.3211 34.2272 76.3211H89.9759C97.5333 76.3211 103.66 70.367 103.66 63.0222ZM62.1111 47.0372C67.4653 47.0372 71.8057 42.8188 71.8057 37.6152C71.8057 32.4116 67.4653 28.1933 62.1111 28.1933C56.7569 28.1933 52.4165 32.4116 52.4165 37.6152C52.4165 42.8188 56.7569 47.0372 62.1111 47.0372Z"/>
</mask>
<path d="M103.66 56.2871L105.845 51.7899L98.6597 48.2983V56.2871H103.66ZM123.866 66.106L126.051 61.6089L126.051 61.6089L123.866 66.106ZM127.317 65.9551L129.892 70.2413L129.892 70.2413L127.317 65.9551ZM127.317 10.8338L129.892 6.54757L129.892 6.54756L127.317 10.8338ZM123.866 10.6829L126.051 15.18L126.051 15.18L123.866 10.6829ZM103.66 20.5018H98.6597V28.4906L105.845 24.9989L103.66 20.5018ZM98.6597 56.2871V63.0222H108.66V56.2871H98.6597ZM126.051 61.6089L105.845 51.7899L101.474 60.7842L121.68 70.6032L126.051 61.6089ZM124.743 61.6689C125.15 61.4245 125.635 61.4064 126.051 61.6089L121.68 70.6032C124.297 71.8744 127.393 71.7421 129.892 70.2413L124.743 61.6689ZM124 63.0222C124 62.4168 124.323 61.9212 124.743 61.6689L129.892 70.2413C132.404 68.7325 134 66.0174 134 63.0222H124ZM124 13.7667V63.0222H134V13.7667H124ZM124.743 15.12C124.323 14.8677 124 14.3721 124 13.7667H134C134 10.7715 132.404 8.05636 129.892 6.54757L124.743 15.12ZM126.051 15.18C125.635 15.3824 125.15 15.3644 124.743 15.12L129.892 6.54756C127.393 5.04674 124.297 4.91447 121.68 6.18572L126.051 15.18ZM105.845 24.9989L126.051 15.18L121.68 6.18572L101.474 16.0047L105.845 24.9989ZM98.6597 13.7667V20.5018H108.66V13.7667H98.6597ZM89.9759 5.46777C94.9072 5.46777 98.6597 9.31683 98.6597 13.7667H108.66C108.66 3.52701 100.159 -4.53223 89.9759 -4.53223V5.46777ZM34.2272 5.46777H89.9759V-4.53223H34.2272V5.46777ZM25.5435 13.7667C25.5435 9.31683 29.2959 5.46777 34.2272 5.46777V-4.53223C24.0439 -4.53223 15.5435 3.52701 15.5435 13.7667H25.5435ZM25.5435 63.0222V13.7667H15.5435V63.0222H25.5435ZM34.2272 71.3211C29.2959 71.3211 25.5435 67.4721 25.5435 63.0222H15.5435C15.5435 73.2619 24.0439 81.3211 34.2272 81.3211V71.3211ZM89.9759 71.3211H34.2272V81.3211H89.9759V71.3211ZM98.6597 63.0222C98.6597 67.4721 94.9072 71.3211 89.9759 71.3211V81.3211C100.159 81.3211 108.66 73.2619 108.66 63.0222H98.6597ZM66.8057 37.6152C66.8057 39.9239 64.8393 42.0372 62.1111 42.0372V52.0372C70.0913 52.0372 76.8057 45.7138 76.8057 37.6152H66.8057ZM62.1111 33.1933C64.8393 33.1933 66.8057 35.3066 66.8057 37.6152H76.8057C76.8057 29.5167 70.0913 23.1933 62.1111 23.1933V33.1933ZM57.4165 37.6152C57.4165 35.3066 59.383 33.1933 62.1111 33.1933V23.1933C54.1309 23.1933 47.4165 29.5167 47.4165 37.6152H57.4165ZM62.1111 42.0372C59.383 42.0372 57.4165 39.9239 57.4165 37.6152H47.4165C47.4165 45.7138 54.1309 52.0372 62.1111 52.0372V42.0372Z" fill="url(#paint1_linear_0_181)" mask="url(#path-2-inside-1_0_181)"/>
</g>
<g id="Imported Layers" filter="url(#filter1_d_0_181)">
<path d="M23.9945 70.9808V73.9808H26.9945H37.5056C38.9629 73.9808 40 75.11 40 76.3207C40 77.5314 38.9629 78.6606 37.5056 78.6606H26.9945H23.9945V81.6606V91.8762C23.9945 93.0869 22.9573 94.2161 21.5 94.2161C20.0427 94.2161 19.0056 93.0869 19.0056 91.8762V81.6606V78.6606H16.0056H5.49445C4.03712 78.6606 3 77.5314 3 76.3207C3 75.11 4.03712 73.9808 5.49445 73.9808H16.0056H19.0056V70.9808V60.7652C19.0056 59.5545 20.0427 58.4253 21.5 58.4253C22.9573 58.4253 23.9945 59.5545 23.9945 60.7652V70.9808Z" stroke="url(#paint2_linear_0_181)" stroke-width="6"/>
</g>
</g>
<defs>
<filter id="filter0_d_0_181" x="14.0936" y="-5.98212" width="129.096" height="96.493" filterUnits="userSpaceOnUse" color-interpolation-filters="sRGB">
<feFlood flood-opacity="0" result="BackgroundImageFix"/>
<feColorMatrix in="SourceAlpha" type="matrix" values="0 0 0 0 0 0 0 0 0 0 0 0 0 0 0 0 0 0 127 0" result="hardAlpha"/>
<feOffset dx="3.86993" dy="3.86993"/>
<feGaussianBlur stdDeviation="5.15991"/>
<feColorMatrix type="matrix" values="0 0 0 0 0 0 0 0 0 0 0 0 0 0 0 0 0 0 0.17 0"/>
<feBlend mode="normal" in2="BackgroundImageFix" result="effect1_dropShadow_0_181"/>
<feBlend mode="normal" in="SourceGraphic" in2="effect1_dropShadow_0_181" result="shape"/>
</filter>
<filter id="filter1_d_0_181" x="-6.44989" y="48.9754" width="63.6397" height="62.4304" filterUnits="userSpaceOnUse" color-interpolation-filters="sRGB">
<feFlood flood-opacity="0" result="BackgroundImageFix"/>
<feColorMatrix in="SourceAlpha" type="matrix" values="0 0 0 0 0 0 0 0 0 0 0 0 0 0 0 0 0 0 127 0" result="hardAlpha"/>
<feOffset dx="3.86993" dy="3.86993"/>
<feGaussianBlur stdDeviation="5.15991"/>
<feColorMatrix type="matrix" values="0 0 0 0 0 0 0 0 0 0 0 0 0 0 0 0 0 0 0.17 0"/>
<feBlend mode="normal" in2="BackgroundImageFix" result="effect1_dropShadow_0_181"/>
<feBlend mode="normal" in="SourceGraphic" in2="effect1_dropShadow_0_181" result="shape"/>
</filter>
<linearGradient id="paint0_linear_0_181" x1="27" y1="9.5" x2="80" y2="76.321" gradientUnits="userSpaceOnUse">
<stop stop-color="white" stop-opacity="0.03"/>
<stop offset="1" stop-color="white" stop-opacity="0"/>
</linearGradient>
<linearGradient id="paint1_linear_0_181" x1="23.4551" y1="0.467782" x2="48.1442" y2="69.886" gradientUnits="userSpaceOnUse">
<stop stop-color="white" stop-opacity="0.12"/>
<stop offset="1" stop-color="white" stop-opacity="0"/>
</linearGradient>
<linearGradient id="paint2_linear_0_181" x1="1.15439" y1="55.4253" x2="18.2672" y2="90.0509" gradientUnits="userSpaceOnUse">
<stop stop-color="white" stop-opacity="0.12"/>
<stop offset="1" stop-color="white" stop-opacity="0"/>
</linearGradient>
<clipPath id="clip0_0_181">
<rect width="129" height="96.7483" fill="white" transform="translate(0 0.467773)"/>
</clipPath>
</defs>
</svg>
