<svg width="24" height="25" viewBox="0 0 24 25" fill="none" xmlns="http://www.w3.org/2000/svg">
<g id="Frame" clip-path="url(#clip0_0_134)">
<path id="Vector" d="M22.1643 6.15593C21.4008 6.49362 20.5912 6.7154 19.7623 6.81393C20.636 6.29136 21.29 5.46894 21.6023 4.49993C20.7823 4.98793 19.8833 5.32993 18.9463 5.51493C18.3169 4.84151 17.4826 4.39489 16.5732 4.24451C15.6638 4.09413 14.7302 4.24842 13.9175 4.68338C13.1048 5.11834 12.4586 5.80961 12.0794 6.64972C11.7001 7.48983 11.609 8.43171 11.8202 9.32893C10.1574 9.24558 8.53058 8.81345 7.04554 8.06059C5.56049 7.30773 4.25038 6.25098 3.20025 4.95893C2.82854 5.59738 2.63321 6.32315 2.63425 7.06193C2.63425 8.51193 3.37225 9.79293 4.49425 10.5429C3.83026 10.522 3.18088 10.3427 2.60025 10.0199V10.0719C2.60045 11.0376 2.93462 11.9735 3.5461 12.721C4.15758 13.4684 5.00873 13.9814 5.95525 14.1729C5.33886 14.34 4.69256 14.3646 4.06525 14.2449C4.33212 15.0762 4.85226 15.8031 5.55284 16.324C6.25343 16.845 7.09938 17.1337 7.97225 17.1499C7.10473 17.8313 6.11143 18.3349 5.04913 18.6321C3.98683 18.9293 2.87638 19.0142 1.78125 18.8819C3.69295 20.1114 5.91835 20.7641 8.19125 20.7619C15.8842 20.7619 20.0913 14.3889 20.0913 8.86193C20.0913 8.68193 20.0863 8.49993 20.0783 8.32193C20.8971 7.7301 21.6038 6.99695 22.1653 6.15693L22.1643 6.15593Z" fill="white"/>
</g>
<defs>
<clipPath id="clip0_0_134">
<rect width="24" height="24" fill="white" transform="translate(0 0.5)"/>
</clipPath>
</defs>
</svg>
