<svg width="397" height="47" viewBox="0 0 397 47" fill="none" xmlns="http://www.w3.org/2000/svg">
<rect opacity="0.35" x="356.412" y="19.0563" width="22.2401" height="10.9435" rx="2.29461" stroke="white" stroke-width="1.05905"/>
<path opacity="0.4" d="M380.241 22.41V26.6462C381.093 26.2874 381.648 25.4528 381.648 24.5281C381.648 23.6034 381.093 22.7688 380.241 22.41Z" fill="white"/>
<rect x="358.001" y="20.6449" width="19.0629" height="7.76637" rx="1.41207" fill="white"/>
<path fill-rule="evenodd" clip-rule="evenodd" d="M342.609 20.9358C344.956 20.9359 347.213 21.8376 348.914 23.4546C349.042 23.5794 349.246 23.5778 349.373 23.451L350.597 22.2155C350.661 22.1512 350.696 22.0641 350.696 21.9734C350.695 21.8828 350.659 21.7961 350.594 21.7326C346.13 17.4545 339.088 17.4545 334.624 21.7326C334.559 21.7961 334.522 21.8827 334.522 21.9734C334.521 22.064 334.557 22.1511 334.62 22.2155L335.845 23.451C335.971 23.578 336.176 23.5796 336.304 23.4546C338.005 21.8375 340.262 20.9358 342.609 20.9358ZM342.609 24.9556C343.899 24.9555 345.142 25.4348 346.098 26.3002C346.227 26.4231 346.431 26.4204 346.557 26.2942L347.779 25.0587C347.844 24.9939 347.88 24.9059 347.879 24.8146C347.878 24.7232 347.84 24.6361 347.775 24.5726C344.864 21.8652 340.357 21.8652 337.446 24.5726C337.381 24.6361 337.343 24.7233 337.342 24.8147C337.341 24.906 337.377 24.994 337.442 25.0587L338.664 26.2942C338.79 26.4204 338.994 26.4231 339.123 26.3002C340.078 25.4353 341.321 24.9561 342.609 24.9556ZM345.059 27.6602C345.061 27.7518 345.025 27.8402 344.959 27.9043L342.844 30.039C342.782 30.1018 342.697 30.1371 342.609 30.1371C342.521 30.1371 342.436 30.1018 342.374 30.039L340.259 27.9043C340.193 27.8401 340.157 27.7518 340.159 27.6601C340.161 27.5685 340.201 27.4818 340.269 27.4204C341.62 26.2778 343.598 26.2778 344.949 27.4204C345.017 27.4818 345.057 27.5686 345.059 27.6602Z" fill="white"/>
<g clip-path="url(#clip0_1_353)">
<path d="M42.1044 23.4118C42.1044 23.3587 42.0947 23.3322 42.0754 23.3322C42.0561 23.3322 41.8124 23.6845 41.3442 24.3891C40.8761 25.089 40.3886 25.7936 39.8818 26.5031C39.3751 27.2126 39.1217 27.5939 39.1217 27.647C39.1217 27.6952 39.2037 27.7194 39.3678 27.7194H39.7153L39.7732 27.7121H40.3814C41.2163 27.7121 41.6821 27.6856 41.7786 27.6325C41.88 27.5794 41.9306 27.4298 41.9306 27.1836C41.9403 27.0967 41.9451 27.034 41.9451 26.9954L41.9668 26.6045V26.4669L41.9958 25.9457C41.9958 25.8781 41.9958 25.8105 41.9958 25.7429L42.061 24.505V24.3819L42.0899 23.8824L42.1044 23.5783V23.4118ZM42.7777 31.3536C42.4253 31.3536 42.1647 31.2426 41.9958 31.0206C41.8317 30.7986 41.7496 30.4221 41.7496 29.8912C41.7496 29.5582 41.5976 29.3072 41.2936 29.1383C40.835 28.8825 40.2848 28.7546 39.6429 28.7546L39.4837 28.7474C39.3775 28.7426 39.1941 28.7401 38.9334 28.7401C38.6728 28.7401 38.4653 28.6943 38.3108 28.6026C38.055 28.453 37.9271 28.2358 37.9271 27.951C37.9271 27.5022 39.0758 25.7454 41.3732 22.6806C41.962 21.8987 42.4326 21.5078 42.7849 21.5078C43.1372 21.5078 43.3568 21.6164 43.4437 21.8336C43.5065 21.988 43.5378 22.7385 43.5378 24.0851C43.5378 25.4316 43.5885 26.2835 43.6899 26.6407C43.796 26.993 43.9457 27.285 44.1387 27.5166C44.187 27.5746 44.2787 27.6614 44.4138 27.7773C44.549 27.8883 44.6165 27.9848 44.6165 28.0669V28.1393C44.6165 28.4433 44.4669 28.7377 44.1677 29.0225C43.8733 29.3072 43.7261 29.5003 43.7261 29.6017L43.7623 30.1157C43.7623 30.941 43.4341 31.3536 42.7777 31.3536ZM47.2448 24.1937H47.3462C47.6888 24.1937 47.9205 24.2661 48.0412 24.4109C48.1618 24.5556 48.2221 24.7752 48.2221 25.0697V25.1059C48.2221 25.7188 47.9712 26.0253 47.4692 26.0253L47.281 26.047H47.1796C46.8659 26.047 46.6463 25.9746 46.5208 25.8298C46.4002 25.6802 46.3398 25.4582 46.3398 25.1638V25.1348L46.3543 24.9755L46.376 24.8235C46.376 24.6305 46.4557 24.4784 46.615 24.3674C46.7742 24.2516 46.9842 24.1937 47.2448 24.1937ZM48.1787 30.1953L48.1642 30.3473C48.1642 30.5259 48.0991 30.6804 47.9688 30.8107C47.8433 30.9362 47.684 30.9989 47.4909 30.9989C47.4523 31.0085 47.421 31.0134 47.3968 31.0134L47.2665 31.0279H47.1362L47.1072 31.0206H47.0421C47.0035 31.011 46.9721 31.0061 46.948 31.0061C46.7501 31.0061 46.5932 30.9386 46.4774 30.8034C46.3664 30.6635 46.3109 30.4632 46.3109 30.2025V30.0722C46.3109 29.7392 46.3905 29.5075 46.5498 29.3772C46.7091 29.2421 46.9359 29.1745 47.2303 29.1745H47.3244C47.6381 29.1745 47.8602 29.2397 47.9905 29.37C48.1208 29.5003 48.1859 29.7006 48.1859 29.9709V30.1591L48.1787 30.1953ZM54.2168 24.2226C54.2168 23.156 53.6932 22.6227 52.6458 22.6227C52.2308 22.6227 51.8229 22.7964 51.4223 23.1439C50.8432 23.6459 50.4957 23.8968 50.3798 23.8968C50.124 23.8968 49.9961 23.6893 49.9961 23.2742C49.9961 22.8543 50.2905 22.4393 50.8794 22.029C51.4682 21.6188 52.1487 21.4137 52.9209 21.4137H53.1526C53.5242 21.4137 53.8886 21.4836 54.2458 21.6236C54.6078 21.7636 54.9022 21.9542 55.129 22.1955C55.5682 22.6589 55.7878 23.2525 55.7878 23.9765C55.7878 25.0383 55.2521 26.0542 54.1806 27.0244C53.8524 27.3236 53.5122 27.6277 53.1598 27.9365C52.8075 28.2454 52.5107 28.5254 52.2694 28.7763C52.0329 29.0225 51.9146 29.2566 51.9146 29.4786C51.9146 29.7006 52.3297 29.8116 53.1598 29.8116C53.628 29.8116 54.0479 29.7875 54.4195 29.7392L54.8032 29.6813L54.9842 29.6451C55.1918 29.6113 55.3559 29.5944 55.4765 29.5944C55.8337 29.5944 56.0122 29.773 56.0122 30.1301C56.0122 30.4825 55.865 30.7286 55.5706 30.8686C55.281 31.0037 54.7453 31.0713 53.9634 31.0713H52.5952L52.3707 31.0641C51.1207 31.0641 50.3943 31.0279 50.1916 30.9555C49.9937 30.8782 49.8948 30.6562 49.8948 30.2894C49.8948 29.9178 50.1313 29.4351 50.6043 28.8415C50.889 28.4843 51.3789 27.9872 52.0739 27.3501C52.7737 26.7131 53.3046 26.1532 53.6666 25.6705C54.0334 25.1831 54.2168 24.7004 54.2168 24.2226ZM60.6242 30.2315H60.8196C61.2637 30.2315 61.6546 30.0481 61.9925 29.6813C62.3351 29.3097 62.5065 28.8536 62.5065 28.313L62.5209 28.1755L62.5282 27.9583V27.8859L62.5209 27.8207C62.5209 27.2126 62.3689 26.742 62.0648 26.409C61.7608 26.076 61.3626 25.9095 60.8703 25.9095L60.8052 25.9167C60.2984 25.9167 59.8761 26.0736 59.5382 26.3873C59.2004 26.6962 59.0315 27.0847 59.0315 27.5528V28.0307C59.0315 28.7064 59.198 29.2421 59.531 29.6379C59.8688 30.0336 60.2332 30.2315 60.6242 30.2315ZM61.645 21.363C62.5958 21.363 63.0712 21.5995 63.0712 22.0725C63.0712 22.4055 62.7743 22.5985 62.1807 22.6516C61.8187 22.6806 61.5991 22.7023 61.5219 22.7168C60.6483 22.8568 59.9943 23.2791 59.5599 23.9837C59.3862 24.2685 59.2993 24.5412 59.2993 24.8018C59.2993 25.1155 59.4682 25.2724 59.8061 25.2724L61.1816 25.171C61.9973 25.171 62.6633 25.4316 63.1797 25.9529C63.701 26.4693 63.9616 27.1498 63.9616 27.9945V28.1827C63.9616 28.5929 63.8844 28.9887 63.73 29.37C63.4162 30.1277 62.8853 30.6635 62.1372 30.9772C61.7029 31.1606 61.2926 31.2523 60.9065 31.2523H60.5301C60.1102 31.2475 59.6951 31.1533 59.2848 30.9699C58.503 30.6128 57.9696 29.9854 57.6849 29.0876C57.5015 28.4988 57.4098 27.881 57.4098 27.2343V26.8434C57.4098 26.0422 57.5184 25.2941 57.7356 24.5991C58.1699 23.2091 58.9542 22.2535 60.0884 21.7322C60.6338 21.4861 61.1527 21.363 61.645 21.363Z" fill="white"/>
</g>
<defs>
<clipPath id="clip0_1_353">
<rect width="57.1887" height="18.0039" fill="white" transform="translate(22.426 17.1147)"/>
</clipPath>
</defs>
</svg>
